<svg xmlns="http://www.w3.org/2000/svg" version="1.1" xmlns:xlink="http://www.w3.org/1999/xlink" width="1000" height="1000"><style>
    #light-icon {
      display: inline;
    }
    #dark-icon {
      display: none;
    }

    @media (prefers-color-scheme: dark) {
      #light-icon {
        display: none;
      }
      #dark-icon {
        display: inline;
      }
    }
  </style><g id="light-icon"><svg xmlns="http://www.w3.org/2000/svg" version="1.1" xmlns:xlink="http://www.w3.org/1999/xlink" width="1000" height="1000"><g clip-path="url(#SvgjsClipPath1506)"><rect width="1000" height="1000" fill="#ffffff"></rect><g transform="matrix(1.953125,0,0,1.953125,0,0)"><svg xmlns="http://www.w3.org/2000/svg" version="1.1" xmlns:xlink="http://www.w3.org/1999/xlink" width="512" height="512"><svg width="512" height="512" viewBox="0 0 512 512" fill="none" xmlns="http://www.w3.org/2000/svg">
<g clip-path="url(#clip0_283_39)">
<path d="M183.588 251.064C188.18 255.82 190.968 263.692 190.804 270.908C190.476 285.012 178.504 296 164.4 296H50.7484C49.2724 296 48.1244 294.852 48.1244 293.376V213.18C48.1244 211.704 49.2724 210.392 50.7484 210.392H163.088C176.864 210.392 188.508 220.888 189.328 234.5C189.82 241.388 187.524 246.308 183.588 251.064ZM65.3444 227.612C64.5244 227.612 63.8684 228.104 63.8684 228.924V243.356C63.8684 244.012 64.5244 244.668 65.1804 244.668H165.056C169.812 244.668 173.748 240.732 173.584 235.812C173.42 231.22 169.32 227.612 164.564 227.612H65.3444ZM166.04 278.944C170.632 278.944 174.732 275.336 174.896 270.58C175.06 265.824 171.124 260.412 166.368 260.412H65.3444C64.5244 260.412 63.8684 261.068 63.8684 261.888V277.632C63.8684 278.288 64.5244 278.944 65.3444 278.944H166.04ZM250.562 218.592C250.562 214 254.17 210.392 258.598 210.392H263.682C265.158 210.392 266.306 211.704 266.306 213.18V287.964C266.306 292.392 262.698 296 258.106 296H253.186C251.71 296 250.562 294.852 250.562 293.376V218.592ZM317.925 296C316.121 296 315.137 294.196 316.121 292.884L372.537 216.788C375.489 212.852 381.557 210.392 386.477 210.392C391.561 210.392 397.465 212.852 400.581 216.788L456.833 292.884C457.817 294.196 456.833 296 455.193 296H444.697C441.253 296 437.973 294.524 436.005 291.736L387.625 226.3C387.133 225.644 385.985 225.644 385.493 226.3L337.113 291.736C334.981 294.524 331.701 296 328.257 296H317.925Z" fill="black"></path>
</g>
<defs>
<clipPath id="clip0_283_39">
<rect width="512" height="512" fill="white"></rect>
</clipPath>
<clipPath id="SvgjsClipPath1506"><rect width="1000" height="1000" x="0" y="0" rx="350" ry="350"></rect></clipPath></defs>
</svg></svg></g></g></svg></g><g id="dark-icon"><svg xmlns="http://www.w3.org/2000/svg" version="1.1" xmlns:xlink="http://www.w3.org/1999/xlink" width="1000" height="1000"><g clip-path="url(#SvgjsClipPath1507)"><rect width="1000" height="1000" fill="#ffffff"></rect><g transform="matrix(1.7578125,0,0,1.7578125,50,50)"><svg xmlns="http://www.w3.org/2000/svg" version="1.1" xmlns:xlink="http://www.w3.org/1999/xlink" width="512" height="512"><svg width="512" height="512" viewBox="0 0 512 512" fill="none" xmlns="http://www.w3.org/2000/svg">
<g clip-path="url(#clip0_283_39)">
<path d="M183.588 251.064C188.18 255.82 190.968 263.692 190.804 270.908C190.476 285.012 178.504 296 164.4 296H50.7484C49.2724 296 48.1244 294.852 48.1244 293.376V213.18C48.1244 211.704 49.2724 210.392 50.7484 210.392H163.088C176.864 210.392 188.508 220.888 189.328 234.5C189.82 241.388 187.524 246.308 183.588 251.064ZM65.3444 227.612C64.5244 227.612 63.8684 228.104 63.8684 228.924V243.356C63.8684 244.012 64.5244 244.668 65.1804 244.668H165.056C169.812 244.668 173.748 240.732 173.584 235.812C173.42 231.22 169.32 227.612 164.564 227.612H65.3444ZM166.04 278.944C170.632 278.944 174.732 275.336 174.896 270.58C175.06 265.824 171.124 260.412 166.368 260.412H65.3444C64.5244 260.412 63.8684 261.068 63.8684 261.888V277.632C63.8684 278.288 64.5244 278.944 65.3444 278.944H166.04ZM250.562 218.592C250.562 214 254.17 210.392 258.598 210.392H263.682C265.158 210.392 266.306 211.704 266.306 213.18V287.964C266.306 292.392 262.698 296 258.106 296H253.186C251.71 296 250.562 294.852 250.562 293.376V218.592ZM317.925 296C316.121 296 315.137 294.196 316.121 292.884L372.537 216.788C375.489 212.852 381.557 210.392 386.477 210.392C391.561 210.392 397.465 212.852 400.581 216.788L456.833 292.884C457.817 294.196 456.833 296 455.193 296H444.697C441.253 296 437.973 294.524 436.005 291.736L387.625 226.3C387.133 225.644 385.985 225.644 385.493 226.3L337.113 291.736C334.981 294.524 331.701 296 328.257 296H317.925Z" fill="black"></path>
</g>
<defs>
<clipPath id="clip0_283_39">
<rect width="512" height="512" fill="white"></rect>
</clipPath>
<clipPath id="SvgjsClipPath1507"><rect width="1000" height="1000" x="0" y="0" rx="350" ry="350"></rect></clipPath></defs>
</svg></svg></g></g></svg></g></svg>