<svg width="691" height="691" viewBox="0 0 691 691" fill="none" xmlns="http://www.w3.org/2000/svg"><rect width="691" height="691" fill="#121211"/><path d="M232.109 408C196.53 408 161.383 408 126 408C126 349.692 126 291.614 126 233.049C127.391 233.049 128.811 233.049 130.23 233.049C163.333 233.049 196.437 232.89 229.538 233.146C239.399 233.222 248.111 237.177 255.677 243.6C263.894 250.575 269.454 259.031 271.345 269.76C273.407 281.464 272.53 292.878 265.982 302.941C262.02 309.03 256.503 314.115 251.766 319.557C254.538 321.729 257.992 324.415 261.422 327.131C268.126 332.44 272.226 339.461 274.743 347.482C278.057 358.043 277.751 368.868 273.63 378.8C268.106 392.112 258.374 401.987 243.975 406.16C240.296 407.226 236.359 407.411 232.109 408ZM159.468 372.909C160.145 373.413 160.828 374.365 161.499 374.357C180.03 374.145 198.579 374.253 217.083 373.398C229.859 372.807 237.803 361.181 234.832 348.993C233.162 342.143 224.628 334.601 217.849 334.588C206.703 334.566 195.558 333.991 184.41 333.805C176.191 333.668 167.968 333.778 159.465 333.778C159.465 346.812 159.465 359.433 159.468 372.909ZM159.465 274.145C159.465 283.938 159.465 293.731 159.465 303.736C176.744 303.736 193.549 304.016 210.337 303.615C218.46 303.421 225.589 300.334 229.676 292.525C233.885 284.482 232.108 274.896 224.639 268.094C219.838 263.724 214.206 263.319 208.576 263.199C193.533 262.881 178.478 263.086 163.427 263.1C162.158 263.101 160.889 263.229 159.465 263.307C159.465 266.832 159.465 270.05 159.465 274.145Z" fill="white"/><path d="M487.456 233.053C495.587 233.053 503.275 233.053 510.907 233.053C533.218 291.225 555.462 349.222 578 407.987C564.476 407.987 552.15 408.033 539.827 407.891C538.94 407.881 537.621 406.676 537.258 405.737C527.106 379.455 517.069 353.129 506.976 326.823C500.991 311.223 494.949 295.645 488.907 280.067C488.622 279.332 488.085 278.695 487.126 277.134C478.209 300.304 469.596 322.685 460.908 345.259C472.468 345.259 483.717 345.168 494.96 345.369C496.433 345.396 498.701 346.582 499.203 347.801C502.647 356.151 505.717 364.654 509.068 373.532C492.02 373.532 475.469 373.532 458.919 373.532C449.525 373.532 449.627 373.567 446.6 382.111C443.765 390.116 440.775 398.071 437.594 405.944C437.188 406.946 435.223 407.886 433.968 407.901C421.834 408.047 409.697 407.988 397 407.988C399.839 400.447 402.56 393.124 405.351 385.828C412.078 368.242 418.826 350.664 425.589 333.092C432.403 315.386 439.269 297.7 446.069 279.989C451.702 265.318 457.191 250.592 463.001 235.992C463.54 234.637 465.902 233.261 467.481 233.185C473.978 232.87 480.499 233.053 487.456 233.053Z" fill="white"/><path d="M562.242 459C418.951 459 276.099 459 133 459C133 452.28 133 445.768 133 439C278.563 439 424.158 439 570 439C570 445.471 570 451.981 570 459C567.593 459 565.137 459 562.242 459Z" fill="white"/><path d="M365 393.183C365 398.334 365 403.041 365 408C352.622 408 340.437 408 328 408C328 349.786 328 291.52 328 233C340.127 233 352.312 233 365 233C365 286.212 365 339.476 365 393.183Z" fill="white"/></svg>