<svg width="213" height="13" viewBox="0 0 213 13" fill="none" xmlns="http://www.w3.org/2000/svg">
<path d="M19.8257 5.95134C20.4977 6.64734 20.9057 7.79934 20.8817 8.85534C20.8337 10.9193 19.0817 12.5273 17.0177 12.5273H0.385719C0.169719 12.5273 0.00171924 12.3593 0.00171924 12.1433V0.407344C0.00171924 0.191344 0.169719 -0.000656605 0.385719 -0.000656605H16.8257C18.8417 -0.000656605 20.5457 1.53534 20.6657 3.52734C20.7377 4.53534 20.4017 5.25534 19.8257 5.95134ZM2.52172 2.51934C2.40172 2.51934 2.30572 2.59134 2.30572 2.71134V4.82334C2.30572 4.91934 2.40172 5.01534 2.49772 5.01534H17.1137C17.8097 5.01534 18.3857 4.43934 18.3617 3.71934C18.3377 3.04734 17.7377 2.51934 17.0417 2.51934H2.52172ZM17.2577 10.0313C17.9297 10.0313 18.5297 9.50334 18.5537 8.80734C18.5777 8.11134 18.0017 7.31934 17.3057 7.31934H2.52172C2.40172 7.31934 2.30572 7.41534 2.30572 7.53534V9.83934C2.30572 9.93534 2.40172 10.0313 2.52172 10.0313H17.2577ZM29.6267 1.19934C29.6267 0.527344 30.1547 -0.000656605 30.8027 -0.000656605H31.5467C31.7627 -0.000656605 31.9307 0.191344 31.9307 0.407344V11.3513C31.9307 11.9993 31.4027 12.5273 30.7307 12.5273H30.0107C29.7947 12.5273 29.6267 12.3593 29.6267 12.1433V1.19934ZM39.4847 12.5273C39.2207 12.5273 39.0767 12.2633 39.2207 12.0713L47.4767 0.935344C47.9087 0.359343 48.7967 -0.000656605 49.5167 -0.000656605C50.2607 -0.000656605 51.1247 0.359343 51.5807 0.935344L59.8127 12.0713C59.9567 12.2633 59.8127 12.5273 59.5727 12.5273H58.0367C57.5327 12.5273 57.0527 12.3113 56.7647 11.9033L49.6847 2.32734C49.6127 2.23134 49.4447 2.23134 49.3727 2.32734L42.2927 11.9033C41.9807 12.3113 41.5007 12.5273 40.9967 12.5273H39.4847ZM102.034 11.3513C102.178 11.4713 102.274 11.6153 102.298 11.8073C102.346 12.1913 102.034 12.5513 101.65 12.5513H100.594C100.066 12.5513 99.562 12.3593 99.13 12.0473L93.922 8.01534C93.49 7.70334 92.986 7.53534 92.458 7.53534H83.938C83.818 7.53534 83.746 7.60734 83.746 7.72734V11.3513C83.746 11.9993 83.194 12.5273 82.546 12.5273H81.826C81.586 12.5273 81.418 12.3593 81.418 12.1433V6.40734C81.418 5.75934 81.946 5.20734 82.618 5.20734H98.722C99.442 5.20734 99.994 4.63134 99.994 3.93534C99.97 3.23934 99.37 2.51934 98.674 2.51934H82.618C81.946 2.51934 81.418 1.96734 81.418 1.31934V0.407344C81.418 0.191344 81.586 -0.000656605 81.826 -0.000656605H98.554C100.666 -0.000656605 102.37 1.96734 102.298 4.10334C102.226 6.14334 100.498 7.53534 98.458 7.53534H97.378C97.282 7.53534 97.234 7.65534 97.306 7.72734L102.034 11.3513ZM109.141 12.5273C108.877 12.5273 108.733 12.2633 108.877 12.0713L117.133 0.935344C117.565 0.359343 118.453 -0.000656605 119.173 -0.000656605C119.917 -0.000656605 120.781 0.359343 121.237 0.935344L129.469 12.0713C129.613 12.2633 129.469 12.5273 129.229 12.5273H127.693C127.189 12.5273 126.709 12.3113 126.421 11.9033L119.341 2.32734C119.269 2.23134 119.101 2.23134 119.029 2.32734L111.949 11.9033C111.637 12.3113 111.157 12.5273 110.653 12.5273H109.141ZM151.519 -0.000656605C154.831 -0.000656605 157.495 2.68734 157.495 5.97534V6.55134C157.495 9.86334 154.831 12.5273 151.519 12.5273H136.999C136.783 12.5273 136.615 12.3593 136.615 12.1433V5.42334C136.615 5.20734 136.783 5.01534 136.999 5.01534H137.743C138.391 5.01534 138.943 5.54334 138.943 6.21534V9.83934C138.943 9.93534 139.015 10.0313 139.135 10.0313H151.711C153.631 10.0313 155.167 8.47134 155.167 6.57534V5.97534C155.167 4.05534 153.631 2.51934 151.711 2.51934H137.815C137.143 2.51934 136.615 1.96734 136.615 1.31934V0.407344C136.615 0.191344 136.783 -0.000656605 136.999 -0.000656605H151.519ZM164.266 12.5273C164.002 12.5273 163.858 12.2633 164.002 12.0713L172.258 0.935344C172.69 0.359343 173.578 -0.000656605 174.298 -0.000656605C175.042 -0.000656605 175.906 0.359343 176.362 0.935344L184.594 12.0713C184.738 12.2633 184.594 12.5273 184.354 12.5273H182.818C182.314 12.5273 181.834 12.3113 181.546 11.9033L174.466 2.32734C174.394 2.23134 174.226 2.23134 174.154 2.32734L167.074 11.9033C166.762 12.3113 166.282 12.5273 165.778 12.5273H164.266ZM212.284 11.3513C212.428 11.4713 212.524 11.6153 212.548 11.8073C212.596 12.1913 212.284 12.5513 211.9 12.5513H210.844C210.316 12.5513 209.812 12.3593 209.38 12.0473L204.172 8.01534C203.74 7.70334 203.236 7.53534 202.708 7.53534H194.188C194.068 7.53534 193.996 7.60734 193.996 7.72734V11.3513C193.996 11.9993 193.444 12.5273 192.796 12.5273H192.076C191.836 12.5273 191.668 12.3593 191.668 12.1433V6.40734C191.668 5.75934 192.196 5.20734 192.868 5.20734H208.972C209.692 5.20734 210.244 4.63134 210.244 3.93534C210.22 3.23934 209.62 2.51934 208.924 2.51934H192.868C192.196 2.51934 191.668 1.96734 191.668 1.31934V0.407344C191.668 0.191344 191.836 -0.000656605 192.076 -0.000656605H208.804C210.916 -0.000656605 212.62 1.96734 212.548 4.10334C212.476 6.14334 210.748 7.53534 208.708 7.53534H207.628C207.532 7.53534 207.484 7.65534 207.556 7.72734L212.284 11.3513Z" fill="white"/>
</svg>
