<svg width="144" height="9" viewBox="0 0 144 9" fill="none" xmlns="http://www.w3.org/2000/svg">
<path d="M6.57559 1.12962C8.06359 1.12962 9.27559 2.23362 9.27559 3.58962V3.81762C9.27559 5.17362 8.06359 6.27763 6.57559 6.27763H3.97159V6.26562H1.17559C1.16359 6.26562 1.16359 6.27763 1.16359 6.28963V7.54963C1.16359 7.84962 0.887594 8.08963 0.563594 8.08963H0.239594C0.107594 8.08963 -0.000406206 7.99363 -0.000406206 7.86163V5.36562C-0.000406206 5.24562 0.107594 5.13762 0.239594 5.13762H4.03159H6.64759C7.45159 5.13762 8.11159 4.54962 8.11159 3.81762V3.58962C8.11159 2.85762 7.45159 2.25762 6.64759 2.25762H2.44759C2.12359 2.25762 1.85959 2.01762 1.85959 1.71762V1.35762C1.85959 1.22562 1.96759 1.12962 2.09959 1.12962H6.57559ZM21.1147 1.12962C22.6027 1.12962 23.8147 2.23362 23.8147 3.58962V3.81762C23.8147 5.17362 22.6027 6.26562 21.1147 6.26562H17.1907C15.7027 6.26562 14.4907 5.17362 14.4907 3.81762V3.58962C14.4907 2.23362 15.7027 1.12962 17.1907 1.12962H21.1147ZM22.6507 3.57762C22.6507 2.85762 22.0027 2.25762 21.1987 2.25762H17.1067C16.3027 2.25762 15.6427 2.85762 15.6427 3.57762V3.81762C15.6427 4.54962 16.3027 5.13762 17.1067 5.13762H21.1987C22.0027 5.13762 22.6507 4.54962 22.6507 3.81762V3.57762ZM36.9919 2.83362C36.9679 3.64962 36.1999 4.26162 35.2279 4.26162H34.8199L36.8479 5.68962C36.9319 5.73762 36.9799 5.82162 36.9919 5.90562C37.0039 6.00162 36.9799 6.09762 36.9079 6.15762C36.8359 6.22962 36.7399 6.27763 36.6319 6.27763H36.1759C35.9239 6.27763 35.6839 6.19362 35.4919 6.06162L33.1879 4.45362C33.0199 4.33362 32.8039 4.26162 32.5879 4.26162H28.8439C28.8319 4.26162 28.8199 4.27362 28.8199 4.28562V5.72562C28.8199 6.02562 28.5559 6.27763 28.2319 6.27763H27.9079C27.7759 6.27763 27.6679 6.16962 27.6679 6.04962V3.75762C27.6679 3.45762 27.9319 3.21762 28.2559 3.21762H35.3479C35.4799 3.21762 35.6119 3.16962 35.6959 3.08562C35.7919 3.00162 35.8399 2.88162 35.8279 2.76162C35.8279 2.53362 35.5999 2.25762 35.3239 2.25762H28.2559C27.9319 2.25762 27.6679 2.01762 27.6679 1.71762V1.35762C27.6679 1.22562 27.7759 1.12962 27.9079 1.12962H35.2759C35.7199 1.12962 36.1399 1.29762 36.4759 1.60962C36.8239 1.93362 37.0159 2.38962 36.9919 2.83362ZM57.5288 0.601625C57.5288 0.265625 57.7928 0.00162482 58.1288 0.00162482H58.4888C58.5968 0.00162482 58.6928 0.097625 58.6928 0.205625V5.67762C58.6928 6.00162 58.4288 6.26562 58.0928 6.26562H57.5288H57.5168C57.3248 6.26562 57.1208 6.20562 56.9528 6.09762C55.6448 5.23362 50.9528 2.13762 49.5608 1.21362C49.4888 1.17762 49.4048 1.22562 49.4048 1.29762V5.67762C49.4048 6.00162 49.1408 6.26562 48.8048 6.26562H48.4448C48.3368 6.26562 48.2528 6.18162 48.2528 6.07362V0.601625C48.2528 0.265625 48.5168 0.00162482 48.8408 0.00162482H49.3808C49.5968 0.00162482 49.8008 0.0616248 49.9808 0.181625L57.3728 5.05362C57.4448 5.10162 57.5288 5.05362 57.5288 4.98162V0.601625ZM70.6197 4.18962H66.2277C65.9157 4.18962 65.6757 3.96162 65.6757 3.67362C65.6757 3.37362 65.9397 3.13362 66.2637 3.13362H70.7517C71.0037 3.10962 71.2077 2.90562 71.2077 2.68962C71.2077 2.44962 70.9797 2.25762 70.7037 2.25762H65.3997C64.5957 2.25762 63.9357 2.85762 63.9357 3.57762V3.81762C63.9357 4.54962 64.5957 5.13762 65.3997 5.13762H71.5197C71.8437 5.13762 72.1077 5.38962 72.1077 5.67762V6.04962C72.1077 6.16962 71.9997 6.26562 71.8677 6.26562H65.4837C63.9957 6.26562 62.7837 5.17362 62.7837 3.81762V3.58962C62.7837 2.23362 63.9957 1.12962 65.4837 1.12962H70.6197C71.5437 1.12962 72.3117 1.77762 72.3717 2.59362C72.3717 2.62962 72.3717 2.73763 72.3717 2.77362C72.3117 3.58962 71.5437 4.18962 70.6197 4.18962ZM82.6382 1.12962C84.1262 1.12962 85.3382 2.23362 85.3382 3.58962V3.81762C85.3382 5.17362 84.1262 6.26562 82.6382 6.26562H78.7142C77.2262 6.26562 76.0142 5.17362 76.0142 3.81762V3.58962C76.0142 2.23362 77.2262 1.12962 78.7142 1.12962H82.6382ZM84.1742 3.57762C84.1742 2.85762 83.5262 2.25762 82.7222 2.25762H78.6302C77.8262 2.25762 77.1662 2.85762 77.1662 3.57762V3.81762C77.1662 4.54962 77.8262 5.13762 78.6302 5.13762H82.7222C83.5262 5.13762 84.1742 4.54962 84.1742 3.81762V3.57762ZM96.6314 3.21762C97.6154 3.21762 98.3594 3.85362 98.3594 4.70562C98.3594 5.56962 97.5794 6.26562 96.6314 6.26562H89.3594C89.2274 6.26562 89.1194 6.16962 89.1194 6.04962V5.67762C89.1194 5.38962 89.3834 5.13762 89.7074 5.13762H96.7154C96.9794 5.13762 97.1954 4.94562 97.1954 4.70562C97.1954 4.46562 96.9794 4.26162 96.7154 4.26162H90.7514C89.7674 4.26162 89.0234 3.62562 89.0234 2.77362C89.0234 1.88562 89.8154 1.12962 90.7514 1.12962H98.0234C98.1554 1.12962 98.2754 1.22562 98.2754 1.35762V1.71762C98.2754 2.01762 97.9994 2.25762 97.6754 2.25762H90.6674C90.4034 2.25762 90.1874 2.54562 90.1874 2.77362C90.1874 3.01362 90.4034 3.21762 90.6674 3.21762H96.6314ZM109.878 4.18962H105.486C105.174 4.18962 104.934 3.96162 104.934 3.67362C104.934 3.37362 105.198 3.13362 105.522 3.13362H110.01C110.262 3.10962 110.466 2.90562 110.466 2.68962C110.466 2.44962 110.238 2.25762 109.962 2.25762H104.658C103.854 2.25762 103.194 2.85762 103.194 3.57762V3.81762C103.194 4.54962 103.854 5.13762 104.658 5.13762H110.778C111.102 5.13762 111.366 5.38962 111.366 5.67762V6.04962C111.366 6.16962 111.258 6.26562 111.126 6.26562H104.742C103.254 6.26562 102.042 5.17362 102.042 3.81762V3.58962C102.042 2.23362 103.254 1.12962 104.742 1.12962H109.878C110.802 1.12962 111.57 1.77762 111.63 2.59362C111.63 2.62962 111.63 2.73763 111.63 2.77362C111.57 3.58962 110.802 4.18962 109.878 4.18962ZM124.679 1.12962C124.823 1.12962 124.931 1.22562 124.931 1.35762V5.72562C124.931 6.02562 124.667 6.26562 124.331 6.26562H123.839C123.635 6.26562 123.455 6.21762 123.299 6.12162L123.263 6.09762L116.783 2.22162H116.771C116.771 2.22162 116.759 2.22162 116.759 2.23362V5.72562C116.759 6.02562 116.495 6.26562 116.159 6.26562H115.847C115.715 6.26562 115.595 6.16962 115.595 6.04962V1.66962C115.595 1.36962 115.871 1.12962 116.195 1.12962H116.663C116.867 1.12962 117.059 1.17762 117.227 1.28562L123.743 5.18562C123.755 5.18562 123.755 5.18562 123.755 5.18562C123.767 5.18562 123.767 5.18562 123.767 5.17362V1.66962C123.767 1.36962 124.031 1.12962 124.367 1.12962H124.679ZM138.955 1.12962C139.087 1.12962 139.195 1.22562 139.195 1.35762V1.71762C139.195 2.01762 138.931 2.25762 138.607 2.25762H131.779V3.81762C131.779 4.54962 132.427 5.13762 133.231 5.13762H133.807C134.131 5.13762 134.407 5.41362 134.407 5.73762V5.98962C134.407 6.14562 134.275 6.26562 134.119 6.26562H133.315C131.827 6.26562 130.615 5.17362 130.615 3.81762V0.217625C130.615 0.097625 130.723 0.00162482 130.855 0.00162482H131.179C131.503 0.00162482 131.779 0.241625 131.779 0.541625V1.12962H138.955ZM143.426 1.12962C143.558 1.12962 143.666 1.22562 143.666 1.35762V5.72562C143.666 6.02562 143.402 6.26562 143.066 6.26562H142.754C142.622 6.26562 142.502 6.16962 142.502 6.04962V1.66962C142.502 1.36962 142.778 1.12962 143.102 1.12962H143.426Z" fill="#BABABA"/>
</svg>
