<svg width="1588" height="1123" viewBox="0 0 1588 1123" fill="none" xmlns="http://www.w3.org/2000/svg">
<path d="M302.59 156.001H177.1L0 641.911H141.961C195.461 479.932 249.134 318.006 302.59 156.001Z" fill="currentColor"/>
<path d="M758.956 306.947C758.956 335.2 741.041 348.986 707.967 348.986H504.679V641.911H745.173C849.229 641.911 907.807 591.592 907.807 509.578C907.807 454.44 872.659 405.499 814.78 392.411C862.324 379.312 896.776 340.715 896.776 282.135C896.776 201.49 836.133 156.001 737.6 156.001H698.106V263.522H707.967C741.041 263.522 758.956 277.998 758.956 306.947ZM769.29 490.275C769.29 519.227 752.073 533.012 718.301 533.012H639.744V444.786H717.612C750.688 444.786 769.29 460.644 769.29 490.275Z" fill="currentColor"/>
<path d="M956.946 348.117V641.911H1149.21C1304.26 641.911 1402.8 539.219 1402.8 398.617C1402.8 256.293 1304.74 156.517 1150.38 156.009V273.513C1221.53 277.765 1265.66 322.025 1265.66 398.617C1265.66 478.565 1216.74 522.679 1138.86 522.679H1092.01V348.117H956.946Z" fill="currentColor"/>
<path d="M1451.93 641.914H1587V341.778H1451.93V641.914Z" fill="currentColor"/>
<path fill-rule="evenodd" clip-rule="evenodd" d="M956.946 296.511C1034.54 296.511 1097.43 233.61 1097.43 156.003H956.946V296.511Z" fill="currentColor"/>
<path fill-rule="evenodd" clip-rule="evenodd" d="M504.679 296.511C582.27 296.511 645.158 233.61 645.158 156.003H504.679V296.511Z" fill="currentColor"/>
<path fill-rule="evenodd" clip-rule="evenodd" d="M1587 156.001C1512.39 156.001 1451.93 216.482 1451.93 291.096H1587V156.001Z" fill="currentColor"/>
<path fill-rule="evenodd" clip-rule="evenodd" d="M285.737 396.157C353.589 373.816 426.689 410.717 449.025 478.593C471.354 546.458 434.458 619.573 366.605 641.903L285.737 396.157Z" fill="currentColor"/>
<path d="M399.207 796.076L384.32 754.481L369.434 796.076H399.207ZM402.278 804.82H366.363L359.748 823.137H348.405L378.176 741.248H390.582L420.238 823.137H408.895L402.278 804.82Z" fill="currentColor"/>
<path d="M481.077 777.88C479.11 774.257 476.452 771.48 473.104 769.55C469.756 767.62 466.073 766.655 462.057 766.655C458.041 766.655 454.378 767.6 451.069 769.491C447.76 771.382 445.121 774.139 443.154 777.763C441.187 781.386 440.203 785.64 440.201 790.524C440.201 795.486 441.185 799.799 443.154 803.464C445.121 807.126 447.76 809.923 451.069 811.853C454.378 813.783 458.041 814.749 462.057 814.75C466.075 814.75 469.757 813.784 473.104 811.853C476.452 809.924 479.11 807.128 481.077 803.464C483.045 799.799 484.03 795.525 484.033 790.641C484.032 785.757 483.046 781.504 481.077 777.88ZM474.639 760.982C478.853 763.425 481.984 766.497 484.033 770.199V758.383H494.901V824.555C494.901 830.464 493.641 835.723 491.12 840.331C488.6 844.939 484.996 848.544 480.311 851.145C475.622 853.745 470.168 855.045 463.948 855.045C455.442 855.045 448.353 853.035 442.682 849.017C437.01 844.998 433.662 839.523 432.639 832.591H443.272C444.454 836.53 446.896 839.701 450.599 842.105C454.298 844.507 458.748 845.708 463.948 845.708C469.854 845.708 474.679 843.857 478.42 840.155C482.162 836.453 484.033 831.253 484.033 824.555V810.966C481.904 814.749 478.753 817.901 474.581 820.42C470.404 822.942 465.521 824.202 459.932 824.202C454.182 824.202 448.964 822.784 444.278 819.948C439.591 817.113 435.909 813.134 433.232 808.012C430.552 802.893 429.213 797.063 429.213 790.524C429.213 783.905 430.552 778.096 433.232 773.094C435.911 768.093 439.593 764.213 444.278 761.455C448.964 758.697 454.182 757.319 459.932 757.32C465.521 757.32 470.424 758.541 474.639 760.982Z" fill="currentColor"/>
<path d="M540.739 742.546L524.317 752.591V744.081L540.739 734.274L557.041 744.081V752.591L540.739 742.546ZM558.342 775.455C556.582 772.545 554.018 770.205 550.958 768.719C547.848 767.185 544.402 766.417 540.619 766.417C535.186 766.417 530.559 768.15 526.739 771.617C522.915 775.084 520.73 779.889 520.184 786.031H561.06C561.06 781.935 560.154 778.409 558.342 775.455ZM571.813 794.776H520.063C520.459 801.157 522.644 806.14 526.619 809.724C530.598 813.308 535.423 815.1 541.094 815.1C545.739 815.1 549.617 814.017 552.729 811.85C555.797 809.742 558.098 806.695 559.287 803.167H570.865C569.133 809.39 565.668 814.451 560.47 818.351C555.272 822.25 548.813 824.2 541.094 824.2C534.951 824.2 529.457 822.821 524.613 820.063C519.77 817.308 515.969 813.389 513.211 808.306C510.452 803.226 509.074 797.338 509.075 790.641C509.075 783.946 510.415 778.077 513.094 773.033C515.771 767.992 519.532 764.112 524.376 761.393C529.22 758.675 534.793 757.316 541.094 757.318C547.238 757.318 552.672 758.657 557.396 761.335C562.121 764.013 565.764 767.696 568.326 772.384C570.884 777.072 572.163 782.37 572.163 788.278C572.163 790.327 572.046 792.493 571.813 794.776Z" fill="currentColor"/>
<path d="M637.026 764.35C641.909 769.116 644.351 775.99 644.351 784.971V823.139H633.718V786.507C633.718 780.047 632.103 775.103 628.874 771.676C625.645 768.25 621.234 766.537 615.643 766.537C609.971 766.537 605.462 768.31 602.115 771.855C598.769 775.4 597.095 780.56 597.095 787.335V823.139H586.342V758.383H597.095V767.6C599.221 764.292 602.114 761.732 605.776 759.919C609.438 758.106 613.475 757.2 617.886 757.2C625.761 757.2 632.142 759.583 637.026 764.35Z" fill="currentColor"/>
<path d="M661.953 773.094C664.631 768.091 668.352 764.211 673.118 761.455C677.883 758.697 683.337 757.318 689.481 757.318C697.435 757.318 703.992 759.248 709.153 763.108C714.31 766.968 717.716 772.326 719.372 779.181H707.794C706.69 775.242 704.543 772.13 701.353 769.844C698.165 767.559 694.207 766.417 689.481 766.417C683.337 766.417 678.375 768.524 674.594 772.739C670.813 776.953 668.923 782.921 668.923 790.641C668.923 798.44 670.813 804.466 674.594 808.72C678.375 812.975 683.337 815.103 689.481 815.103C694.207 815.103 698.145 813.999 701.294 811.791C704.445 809.587 706.611 806.436 707.794 802.339H719.372C717.638 808.958 714.172 814.255 708.974 818.233C703.776 822.211 697.278 824.2 689.481 824.2C683.337 824.2 677.883 822.822 673.118 820.065C668.352 817.309 664.631 813.41 661.953 808.367C659.276 803.325 657.936 797.416 657.934 790.641C657.934 783.946 659.274 778.097 661.953 773.094Z" fill="currentColor"/>
<path d="M744.416 823.137H733.663V758.381H744.416V823.137ZM734.021 745.737C732.602 744.32 731.893 742.587 731.893 740.537C731.893 738.491 732.602 736.758 734.021 735.337C735.435 733.92 737.167 733.211 739.22 733.211C740.158 733.197 741.089 733.379 741.953 733.745C742.817 734.111 743.595 734.653 744.237 735.337C745.617 736.758 746.307 738.491 746.307 740.537C746.307 742.588 745.617 744.322 744.237 745.737C743.595 746.422 742.817 746.965 741.953 747.331C741.089 747.698 740.158 747.88 739.22 747.866C737.169 747.866 735.436 747.156 734.021 745.737Z" fill="currentColor"/>
<path d="M810.575 777.88C808.608 774.257 805.95 771.48 802.601 769.55C799.253 767.62 795.571 766.655 791.555 766.655C787.538 766.655 783.876 767.6 780.566 769.491C777.257 771.382 774.619 774.139 772.652 777.763C770.685 781.386 769.7 785.64 769.698 790.524C769.698 795.486 770.683 799.799 772.652 803.464C774.619 807.126 777.257 809.923 780.566 811.853C783.876 813.783 787.538 814.749 791.555 814.75C795.572 814.75 799.255 813.784 802.601 811.853C805.95 809.924 808.608 807.128 810.575 803.464C812.542 799.799 813.527 795.525 813.531 790.641C813.529 785.757 812.544 781.504 810.575 777.88ZM762.729 773.094C765.406 768.094 769.089 764.215 773.776 761.455C778.46 758.699 783.677 757.32 789.429 757.32C795.099 757.32 800.021 758.541 804.196 760.982C808.37 763.423 811.482 766.496 813.531 770.199V758.383H824.399V823.139H813.531V811.086C811.402 814.866 808.231 817.997 804.019 820.479C799.806 822.961 794.902 824.202 789.309 824.202C783.561 824.202 778.363 822.784 773.715 819.948C769.068 817.113 765.406 813.135 762.729 808.012C760.05 802.893 758.71 797.064 758.71 790.524C758.71 783.906 760.05 778.096 762.729 773.094Z" fill="currentColor"/>
<path d="M916.432 810.493C919.425 807.972 920.921 804.466 920.921 799.976C920.921 795.407 919.346 791.803 916.197 789.164C913.044 786.524 908.83 785.204 903.553 785.206H884.888V814.272H903.909C909.263 814.272 913.438 813.013 916.432 810.493ZM884.888 776.342H902.963C908.003 776.342 911.902 775.16 914.659 772.798C917.417 770.435 918.795 767.165 918.795 762.988C918.795 758.814 917.417 755.545 914.659 753.181C911.9 750.818 907.922 749.637 902.726 749.637H884.888V776.342ZM923.578 784.378C926.065 786.353 928.083 788.855 929.487 791.704C930.936 794.602 931.685 797.799 931.674 801.039C931.674 805.216 930.61 808.977 928.483 812.323C926.354 815.672 923.263 818.312 919.209 820.242C915.15 822.173 910.365 823.138 904.854 823.137H874.135V740.772H903.673C909.263 740.774 914.028 741.7 917.967 743.55C921.905 745.403 924.859 747.905 926.827 751.055C928.798 754.206 929.783 757.751 929.783 761.69C929.783 766.574 928.463 770.611 925.823 773.802C923.183 776.991 919.698 779.295 915.367 780.714C918.361 781.188 921.098 782.409 923.578 784.378Z" fill="currentColor"/>
<path d="M965.402 760.274C968.905 758.227 973.179 757.203 978.222 757.203V768.311H975.383C963.335 768.311 957.311 774.849 957.311 787.925V823.139H946.558V758.383H957.311V768.901C959.2 765.199 961.897 762.324 965.402 760.274Z" fill="currentColor"/>
<path d="M1038.47 777.88C1036.5 774.257 1033.85 771.48 1030.5 769.55C1027.15 767.62 1023.47 766.655 1019.45 766.655C1015.43 766.655 1011.77 767.6 1008.46 769.491C1005.15 771.382 1002.52 774.139 1000.55 777.763C998.581 781.386 997.596 785.64 997.595 790.524C997.595 795.486 998.579 799.799 1000.55 803.464C1002.52 807.126 1005.15 809.923 1008.46 811.853C1011.77 813.783 1015.43 814.749 1019.45 814.75C1023.47 814.75 1027.15 813.784 1030.5 811.853C1033.85 809.924 1036.5 807.128 1038.47 803.464C1040.44 799.799 1041.42 795.525 1041.43 790.641C1041.43 785.757 1040.44 781.504 1038.47 777.88ZM990.625 773.094C993.303 768.094 996.985 764.215 1001.67 761.455C1006.36 758.699 1011.57 757.32 1017.33 757.32C1023 757.32 1027.92 758.541 1032.09 760.982C1036.27 763.423 1039.38 766.496 1041.43 770.199V758.383H1052.3V823.139H1041.43V811.086C1039.3 814.866 1036.13 817.997 1031.92 820.479C1027.7 822.961 1022.8 824.202 1017.21 824.202C1011.46 824.202 1006.26 822.784 1001.61 819.948C996.965 817.113 993.303 813.135 990.625 808.012C987.946 802.893 986.607 797.064 986.607 790.524C986.607 783.906 987.946 778.096 990.625 773.094Z" fill="currentColor"/>
<path d="M1080.06 821.66C1076.12 819.967 1073.01 817.603 1070.72 814.569C1068.44 811.537 1067.18 808.051 1066.94 804.113H1078.05C1078.36 807.343 1079.88 809.981 1082.6 812.029C1085.31 814.078 1088.88 815.102 1093.29 815.1C1097.38 815.1 1100.61 814.195 1102.98 812.384C1105.34 810.572 1106.52 808.287 1106.52 805.531C1106.52 802.693 1105.26 800.586 1102.74 799.209C1100.22 797.829 1096.32 796.47 1091.04 795.131C1086.24 793.87 1082.32 792.59 1079.29 791.29C1076.27 790.002 1073.6 788.018 1071.49 785.5C1069.32 782.943 1068.24 779.575 1068.24 775.396C1068.24 772.088 1069.23 769.055 1071.2 766.297C1073.17 763.542 1075.96 761.357 1079.59 759.74C1083.21 758.125 1087.34 757.318 1091.99 757.318C1099.16 757.318 1104.94 759.129 1109.36 762.753C1113.77 766.378 1116.13 771.341 1116.45 777.642H1105.69C1105.46 774.256 1104.1 771.538 1101.62 769.489C1099.14 767.441 1095.81 766.417 1091.63 766.417C1087.77 766.417 1084.7 767.244 1082.42 768.898C1080.14 770.552 1078.99 772.718 1078.99 775.396C1078.99 777.526 1079.68 779.279 1081.06 780.655C1082.44 782.035 1084.17 783.138 1086.26 783.964C1088.34 784.792 1091.24 785.718 1094.94 786.742C1099.59 788.002 1103.37 789.243 1106.29 790.462C1109.18 791.677 1111.75 793.561 1113.79 795.959C1115.87 798.402 1116.96 801.592 1117.04 805.531C1117.04 809.076 1116.05 812.266 1114.08 815.1C1112.11 817.937 1109.34 820.162 1105.75 821.777C1102.17 823.392 1098.06 824.2 1093.41 824.2C1088.44 824.2 1083.99 823.353 1080.06 821.66Z" fill="currentColor"/>
<path d="M1142.91 823.137H1132.15V758.381H1142.91V823.137ZM1132.51 745.737C1131.09 744.32 1130.38 742.587 1130.38 740.537C1130.38 738.491 1131.09 736.758 1132.51 735.337C1133.93 733.92 1135.66 733.211 1137.71 733.211C1138.65 733.197 1139.58 733.378 1140.44 733.744C1141.31 734.11 1142.09 734.653 1142.73 735.337C1144.11 736.758 1144.8 738.491 1144.8 740.537C1144.8 742.588 1144.11 744.322 1142.73 745.737C1142.09 746.422 1141.31 746.965 1140.44 747.332C1139.58 747.698 1138.65 747.88 1137.71 747.866C1135.66 747.866 1133.93 747.156 1132.51 745.737ZM1171.97 823.137H1161.22V735.692H1171.97V823.137Z" fill="currentColor"/>
<path d="M1235.53 775.455C1233.77 772.544 1231.2 770.205 1228.14 768.719C1225.03 767.185 1221.59 766.417 1217.81 766.417C1212.37 766.417 1207.74 768.15 1203.93 771.615C1200.1 775.081 1197.92 779.887 1197.37 786.031H1238.25C1238.25 781.935 1237.34 778.409 1235.53 775.455ZM1249 794.776H1197.25C1197.64 801.155 1199.83 806.138 1203.81 809.724C1207.78 813.31 1212.61 815.102 1218.28 815.1C1222.93 815.1 1226.8 814.017 1229.92 811.85C1233.03 809.687 1235.21 806.791 1236.47 803.165H1248.05C1246.32 809.388 1242.85 814.45 1237.65 818.351C1232.46 822.252 1226 824.201 1218.28 824.2C1212.14 824.2 1206.64 822.821 1201.8 820.063C1196.95 817.305 1193.15 813.386 1190.4 808.306C1187.64 803.224 1186.26 797.335 1186.26 790.639C1186.26 783.944 1187.6 778.075 1190.28 773.033C1192.96 767.99 1196.72 764.111 1201.56 761.393C1206.41 758.675 1211.98 757.316 1218.28 757.318C1224.43 757.318 1229.86 758.657 1234.58 761.335C1239.31 764.013 1242.95 767.696 1245.51 772.384C1248.07 777.068 1249.35 782.366 1249.35 788.278C1249.35 790.325 1249.23 792.491 1249 794.776Z" fill="currentColor"/>
<path d="M1274.28 823.137H1263.53V758.381H1274.28V823.137ZM1263.88 745.737C1262.47 744.32 1261.76 742.587 1261.76 740.537C1261.76 738.491 1262.47 736.758 1263.88 735.337C1265.3 733.92 1267.03 733.211 1269.08 733.211C1271.05 733.211 1272.72 733.92 1274.1 735.337C1275.48 736.758 1276.17 738.491 1276.17 740.537C1276.17 742.588 1275.48 744.322 1274.1 745.737C1273.46 746.422 1272.68 746.965 1271.82 747.332C1270.95 747.698 1270.02 747.88 1269.08 747.866C1267.03 747.866 1265.3 747.156 1263.88 745.737Z" fill="currentColor"/>
<path d="M1311.43 760.274C1314.94 758.227 1319.21 757.203 1324.25 757.203V768.311H1321.42C1309.37 768.311 1303.34 774.849 1303.34 787.925V823.139H1292.59V758.383H1303.34V768.901C1305.23 765.199 1307.93 762.324 1311.43 760.274Z" fill="currentColor"/>
<path d="M1384.5 777.88C1382.54 774.257 1379.88 771.48 1376.53 769.55C1373.18 767.62 1369.5 766.655 1365.48 766.655C1361.47 766.655 1357.8 767.6 1354.49 769.491C1351.19 771.382 1348.55 774.139 1346.58 777.763C1344.61 781.386 1343.63 785.64 1343.63 790.524C1343.63 795.486 1344.61 799.799 1346.58 803.464C1348.55 807.126 1351.19 809.923 1354.49 811.853C1357.8 813.783 1361.47 814.749 1365.48 814.75C1369.5 814.75 1373.18 813.784 1376.53 811.853C1379.88 809.924 1382.54 807.128 1384.5 803.464C1386.47 799.799 1387.46 795.525 1387.46 790.641C1387.46 785.757 1386.47 781.504 1384.5 777.88ZM1336.66 773.094C1339.33 768.094 1343.02 764.215 1347.7 761.455C1352.39 758.699 1357.61 757.32 1363.36 757.32C1369.03 757.32 1373.95 758.541 1378.12 760.982C1382.3 763.423 1385.41 766.496 1387.46 770.199V758.383H1398.33V823.139H1387.46V811.086C1385.33 814.866 1382.16 817.997 1377.95 820.479C1373.73 822.961 1368.83 824.202 1363.24 824.202C1357.49 824.202 1352.29 822.784 1347.64 819.948C1343 817.113 1339.33 813.135 1336.66 808.012C1333.98 802.893 1332.64 797.064 1332.64 790.524C1332.64 783.906 1333.98 778.096 1336.66 773.094Z" fill="currentColor"/>
<path d="M1495.91 777.88C1493.94 774.257 1491.29 771.48 1487.94 769.55C1484.59 767.62 1480.91 766.655 1476.89 766.655C1472.88 766.655 1469.21 767.6 1465.9 769.491C1462.59 771.382 1459.96 774.139 1457.99 777.763C1456.02 781.386 1455.04 785.64 1455.04 790.524C1455.04 795.486 1456.02 799.799 1457.99 803.464C1459.96 807.126 1462.59 809.923 1465.9 811.853C1469.21 813.783 1472.88 814.749 1476.89 814.75C1480.91 814.75 1484.59 813.784 1487.94 811.853C1491.29 809.924 1493.94 807.128 1495.91 803.464C1497.88 799.799 1498.86 795.525 1498.87 790.641C1498.87 785.757 1497.88 781.504 1495.91 777.88ZM1448.06 773.094C1450.74 768.094 1454.43 764.215 1459.11 761.455C1463.8 758.699 1469.05 757.32 1474.88 757.32C1479.92 757.32 1484.61 758.482 1488.94 760.806C1493.27 763.129 1496.58 766.182 1498.87 769.964V735.695H1509.74V823.139H1498.87V810.966C1496.74 814.826 1493.59 817.997 1489.41 820.479C1485.24 822.961 1480.36 824.202 1474.77 824.202C1469.02 824.202 1463.8 822.784 1459.11 819.948C1454.43 817.113 1450.74 813.135 1448.06 808.012C1445.39 802.893 1444.05 797.064 1444.05 790.524C1444.05 783.906 1445.39 778.096 1448.06 773.094Z" fill="currentColor"/>
<path d="M1573.18 775.455C1571.42 772.544 1568.85 770.205 1565.79 768.719C1562.68 767.185 1559.24 766.417 1555.46 766.417C1550.02 766.417 1545.39 768.15 1541.58 771.615C1537.75 775.081 1535.57 779.887 1535.02 786.031H1575.9C1575.9 781.935 1574.99 778.409 1573.18 775.455ZM1586.65 794.776H1534.9C1535.29 801.155 1537.48 806.138 1541.46 809.724C1545.43 813.31 1550.26 815.102 1555.93 815.1C1560.58 815.1 1564.45 814.017 1567.57 811.85C1570.68 809.687 1572.86 806.791 1574.12 803.165H1585.7C1583.97 809.388 1580.5 814.45 1575.3 818.351C1570.11 822.252 1563.65 824.201 1555.93 824.2C1549.79 824.2 1544.29 822.821 1539.45 820.063C1534.6 817.305 1530.8 813.386 1528.05 808.306C1525.29 803.224 1523.91 797.335 1523.91 790.639C1523.91 783.944 1525.25 778.075 1527.93 773.033C1530.61 767.99 1534.37 764.111 1539.21 761.393C1544.05 758.675 1549.63 757.316 1555.93 757.318C1562.08 757.318 1567.51 758.657 1572.23 761.335C1576.96 764.013 1580.6 767.696 1583.16 772.384C1585.72 777.068 1587 782.366 1587 788.278C1587 790.325 1586.88 792.491 1586.65 794.776Z" fill="currentColor"/>
<path d="M49.974 947.628C55.5673 941.996 58.3639 934.098 58.3639 923.935C58.3639 913.693 55.5485 905.697 49.9178 899.946C44.2837 894.197 36.191 891.322 25.6398 891.322H10.7531V956.075H25.6398C36.271 956.075 44.3825 953.259 49.974 947.628ZM48.9725 887.599C55.5468 890.948 60.5874 895.734 64.0943 901.957C67.5977 908.18 69.3503 915.506 69.352 923.935C69.352 932.367 67.5994 939.674 64.0943 945.854C60.5874 952.041 55.5468 956.768 48.9725 960.033C42.3948 963.304 34.6172 964.94 25.6398 964.94H0V882.575H25.6398C34.6155 882.575 42.3931 884.25 48.9725 887.599Z" fill="currentColor"/>
<path d="M128.776 917.255C127.016 914.344 124.45 912.005 121.39 910.52C118.28 908.985 114.835 908.217 111.054 908.217C105.619 908.217 100.992 909.95 97.1736 913.415C93.3516 916.881 91.1656 921.687 90.6154 927.832H131.494C131.494 923.735 130.588 920.209 128.776 917.255ZM142.245 936.576H90.4979C90.8897 942.956 93.0748 947.938 97.0535 951.524C101.032 955.11 105.857 956.902 111.529 956.901C116.173 956.901 120.052 955.817 123.163 953.65C126.275 951.487 128.461 948.592 129.721 944.965H141.3C139.566 951.188 136.1 956.25 130.902 960.151C125.704 964.052 119.246 966.002 111.529 966C105.384 966 99.8893 964.621 95.0454 961.863C90.2016 959.105 86.4018 955.186 83.646 950.106C80.8869 945.025 79.5081 939.135 79.5098 932.439C79.5098 925.744 80.8485 919.875 83.5259 914.833C86.2033 909.791 89.9648 905.911 94.8104 903.194C99.6525 900.475 105.225 899.116 111.529 899.118C117.672 899.118 123.106 900.457 127.831 903.135C132.556 905.813 136.199 909.496 138.76 914.184C141.318 918.869 142.598 924.167 142.598 930.078C142.598 932.125 142.48 934.291 142.245 936.576Z" fill="currentColor"/>
<path d="M166.347 963.46C162.407 961.767 159.296 959.403 157.012 956.369C154.726 953.337 153.466 949.851 153.233 945.913H164.336C164.653 949.143 166.17 951.782 168.886 953.829C171.601 955.879 175.165 956.902 179.578 956.901C183.672 956.901 186.902 955.995 189.266 954.184C191.628 952.372 192.809 950.087 192.809 947.331C192.809 944.493 191.55 942.386 189.031 941.009C186.508 939.63 182.609 938.27 177.332 936.931C172.528 935.67 168.609 934.39 165.578 933.091C162.559 931.802 159.887 929.818 157.781 927.3C155.612 924.743 154.529 921.375 154.531 917.197C154.531 913.888 155.515 910.855 157.484 908.097C159.453 905.343 162.249 903.157 165.872 901.54C169.496 899.925 173.631 899.118 178.278 899.118C185.445 899.118 191.234 900.93 195.645 904.553C200.054 908.178 202.418 913.141 202.734 919.443H191.981C191.745 916.056 190.387 913.338 187.909 911.289C185.426 909.241 182.097 908.217 177.922 908.217C174.063 908.217 170.992 909.044 168.71 910.699C166.424 912.353 165.281 914.519 165.281 917.197C165.281 919.326 165.97 921.079 167.348 922.455C168.726 923.835 170.459 924.938 172.547 925.765C174.634 926.592 177.528 927.518 181.231 928.542C185.877 929.803 189.658 931.043 192.574 932.263C195.473 933.478 198.043 935.361 200.075 937.759C202.163 940.202 203.246 943.393 203.325 947.331C203.325 950.876 202.339 954.066 200.369 956.901C198.401 959.737 195.626 961.963 192.043 963.578C188.459 965.193 184.344 966 179.698 966C174.733 966 170.283 965.153 166.347 963.46Z" fill="currentColor"/>
<path d="M263.694 917.255C261.933 914.344 259.368 912.005 256.308 910.52C253.198 908.985 249.753 908.217 245.971 908.217C240.537 908.217 235.91 909.95 232.091 913.415C228.269 916.881 226.083 921.687 225.533 927.832H266.412C266.412 923.735 265.506 920.209 263.694 917.255ZM277.163 936.576H225.416C225.807 942.956 227.993 947.938 231.971 951.524C235.95 955.11 240.775 956.902 246.447 956.901C251.091 956.901 254.969 955.817 258.081 953.65C261.193 951.487 263.379 948.592 264.639 944.965H276.217C274.484 951.188 271.018 956.25 265.82 960.151C260.621 964.052 254.164 966.002 246.447 966C240.302 966 234.807 964.621 229.963 961.863C225.119 959.105 221.32 955.186 218.564 950.106C215.805 945.025 214.426 939.135 214.428 932.439C214.428 925.744 215.766 919.875 218.444 914.833C221.121 909.791 224.883 905.911 229.728 903.194C234.57 900.475 240.143 899.116 246.447 899.118C252.59 899.118 258.024 900.457 262.749 903.135C267.473 905.813 271.116 909.496 273.678 914.184C276.236 918.869 277.515 924.167 277.515 930.078C277.515 932.125 277.398 934.291 277.163 936.576Z" fill="currentColor"/>
<path d="M342.379 906.148C347.262 910.914 349.703 917.788 349.703 926.769V964.937H339.07V928.304C339.07 921.845 337.455 916.901 334.226 913.474C330.997 910.048 326.587 908.335 320.995 908.335C315.323 908.335 310.814 910.107 307.467 913.653C304.121 917.198 302.447 922.357 302.447 929.132V964.937H291.694V900.181H302.447V909.398C304.573 906.09 307.467 903.529 311.128 901.717C314.79 899.904 318.827 898.998 323.238 898.998C331.114 898.998 337.494 901.381 342.379 906.148Z" fill="currentColor"/>
<path d="M391.405 955.012L411.49 900.181H422.949L397.546 964.937H385.025L359.623 900.181H371.202L391.405 955.012Z" fill="currentColor"/>
<path d="M472.688 953.829C476.075 952.018 478.812 949.3 480.899 945.675C482.987 942.054 484.031 937.642 484.031 932.441C484.031 927.242 483.006 922.83 480.957 919.205C478.91 915.583 476.232 912.886 472.923 911.113C469.619 909.339 465.924 908.425 462.175 908.452C458.234 908.452 454.63 909.339 451.363 911.113C448.093 912.886 445.474 915.583 443.507 919.205C441.538 922.83 440.554 927.242 440.554 932.441C440.554 937.722 441.518 942.173 443.448 945.793C445.376 949.418 447.956 952.116 451.187 953.888C454.414 955.661 457.958 956.548 461.82 956.548C465.677 956.548 469.3 955.642 472.688 953.829ZM445.336 961.866C440.414 959.108 436.554 955.189 433.758 950.109C430.963 945.025 429.565 939.136 429.565 932.441C429.565 925.823 431.003 919.974 433.878 914.894C436.753 909.814 440.671 905.914 445.632 903.194C450.596 900.477 456.148 899.118 462.29 899.118C468.435 899.118 473.989 900.477 478.952 903.194C483.912 905.913 487.83 909.793 490.706 914.836C493.58 919.878 495.017 925.747 495.019 932.441C495.021 939.136 493.543 945.025 490.586 950.109C487.631 955.189 483.635 959.108 478.597 961.866C473.555 964.622 467.963 966 461.82 966C455.755 966 450.26 964.622 445.336 961.866Z" fill="currentColor"/>
<path d="M519.946 964.937H509.193V877.493H519.946V964.937Z" fill="currentColor"/>
<path d="M562.355 955.012L582.441 900.181H593.899L568.497 964.937H555.976L530.574 900.181H542.152L562.355 955.012Z" fill="currentColor"/>
<path d="M615.283 964.937H604.529V900.181H615.283V964.937ZM604.887 887.537C603.468 886.12 602.759 884.387 602.759 882.338C602.759 880.29 603.468 878.557 604.887 877.137C606.302 875.72 608.035 875.012 610.084 875.012C611.022 874.997 611.954 875.178 612.818 875.545C613.682 875.911 614.461 876.453 615.104 877.137C616.482 878.557 617.17 880.29 617.17 882.338C617.17 884.385 616.482 886.118 615.104 887.537C614.461 888.222 613.682 888.764 612.818 889.13C611.954 889.497 611.022 889.678 610.084 889.664C608.035 889.664 606.302 888.955 604.887 887.537Z" fill="currentColor"/>
<path d="M724.918 902.131C728.854 904.219 731.966 907.35 734.253 911.524C736.536 915.701 737.677 920.783 737.677 926.769V964.937H727.044V928.304C727.044 921.845 725.45 916.901 722.261 913.474C719.073 910.048 714.76 908.335 709.324 908.335C703.732 908.335 699.283 910.127 695.975 913.711C692.664 917.296 691.009 922.475 691.011 929.25V964.937H680.378V928.304C680.378 921.845 678.784 916.901 675.596 913.474C672.404 910.048 668.091 908.335 662.656 908.335C657.062 908.335 652.613 910.127 649.307 913.711C645.999 917.296 644.346 922.475 644.346 929.25V964.937H633.595V900.181H644.346V909.516C646.424 906.174 649.389 903.475 652.909 901.717C656.493 899.904 660.451 898.998 664.784 898.998C670.217 898.998 675.022 900.219 679.198 902.662C683.371 905.103 686.482 908.688 688.53 913.415C690.341 908.846 693.334 905.301 697.51 902.78C701.683 900.259 706.33 898.998 711.452 898.998C716.493 898.998 720.982 900.042 724.918 902.131Z" fill="currentColor"/>
<path d="M800.529 917.255C798.769 914.344 796.204 912.005 793.144 910.52C790.034 908.985 786.588 908.217 782.807 908.217C777.372 908.217 772.745 909.95 768.927 913.415C765.105 916.881 762.919 921.687 762.369 927.832H803.248C803.248 923.735 802.342 920.209 800.529 917.255ZM813.998 936.576H762.251C762.643 942.956 764.828 947.938 768.807 951.524C772.785 955.11 777.61 956.902 783.282 956.901C787.927 956.901 791.805 955.817 794.917 953.65C798.028 951.487 800.214 948.592 801.475 944.965H813.053C811.319 951.188 807.853 956.25 802.655 960.151C797.457 964.052 790.999 966.002 783.282 966C777.137 966 771.643 964.621 766.799 961.863C761.955 959.105 758.155 955.186 755.399 950.106C752.64 945.025 751.261 939.135 751.263 932.439C751.263 925.744 752.603 919.875 755.282 914.833C757.961 909.791 761.721 905.911 766.564 903.194C771.406 900.475 776.979 899.116 783.282 899.118C789.427 899.118 794.861 900.457 799.584 903.135C804.307 905.813 807.95 909.496 810.513 914.184C813.072 918.869 814.351 924.167 814.351 930.078C814.351 932.125 814.233 934.291 813.998 936.576Z" fill="currentColor"/>
<path d="M879.214 906.148C884.097 910.914 886.539 917.788 886.539 926.769V964.937H875.906V928.304C875.906 921.845 874.291 916.901 871.062 913.474C867.832 910.048 863.422 908.335 857.831 908.335C852.159 908.335 847.65 910.107 844.303 913.653C840.956 917.198 839.283 922.357 839.283 929.132V964.937H828.53V900.181H839.283V909.398C841.408 906.09 844.302 903.529 847.964 901.717C851.626 899.904 855.662 898.998 860.074 898.998C867.951 898.998 874.331 901.381 879.214 906.148Z" fill="currentColor"/>
<path d="M917.257 909.043V947.211C917.257 950.363 917.926 952.588 919.265 953.888C920.604 955.188 922.927 955.838 926.235 955.838H934.152V964.937H924.464C918.478 964.937 913.987 963.558 910.993 960.8C907.999 958.042 906.502 953.512 906.504 947.211V909.043H898.117V900.181H906.504V883.873H917.257V900.181H934.152V909.043H917.257Z" fill="currentColor"/>
<path d="M986.251 953.829C989.639 952.018 992.376 949.3 994.463 945.675C996.551 942.054 997.595 937.642 997.595 932.441C997.595 927.242 996.57 922.83 994.521 919.205C992.474 915.583 989.796 912.886 986.487 911.113C983.183 909.339 979.487 908.425 975.739 908.452C971.797 908.452 968.193 909.339 964.927 911.113C961.657 912.886 959.038 915.583 957.071 919.205C955.102 922.83 954.117 927.242 954.117 932.441C954.117 937.722 955.082 942.173 957.012 945.793C958.94 949.418 961.52 952.116 964.75 953.888C967.978 955.661 971.522 956.548 975.383 956.548C979.241 956.548 982.864 955.642 986.251 953.829ZM958.9 961.866C953.978 959.108 950.118 955.189 947.322 950.109C944.527 945.025 943.129 939.136 943.129 932.441C943.129 925.823 944.567 919.974 947.442 914.894C950.317 909.814 954.235 905.914 959.196 903.194C964.159 900.477 969.712 899.118 975.854 899.118C981.999 899.118 987.553 900.477 992.516 903.194C997.475 905.913 1001.39 909.793 1004.27 914.836C1007.14 919.878 1008.58 925.747 1008.58 932.441C1008.58 939.136 1007.11 945.025 1004.15 950.109C1001.2 955.189 997.199 959.108 992.161 961.866C987.119 964.622 981.527 966 975.383 966C969.318 966 963.824 964.622 958.9 961.866Z" fill="currentColor"/>
<path d="M1065.05 964.937H1054.3V882.575H1065.05V964.937Z" fill="currentColor"/>
<path d="M1134.05 906.148C1138.93 910.914 1141.37 917.788 1141.37 926.769V964.937H1130.74V928.304C1130.74 921.845 1129.12 916.901 1125.9 913.474C1122.67 910.048 1118.26 908.335 1112.66 908.335C1106.99 908.335 1102.48 910.107 1099.14 913.653C1095.79 917.198 1094.12 922.357 1094.12 929.132V964.937H1083.36V900.181H1094.12V909.398C1096.24 906.09 1099.14 903.529 1102.8 901.717C1106.46 899.904 1110.5 898.998 1114.91 898.998C1122.78 898.998 1129.16 901.381 1134.05 906.148Z" fill="currentColor"/>
<path d="M1206.82 919.678C1204.86 916.054 1202.2 913.278 1198.85 911.348C1195.5 909.418 1191.82 908.452 1187.8 908.452C1183.79 908.452 1180.12 909.398 1176.81 911.289C1173.51 913.18 1170.87 915.937 1168.9 919.56C1166.93 923.184 1165.95 927.437 1165.95 932.321C1165.95 937.284 1166.93 941.597 1168.9 945.261C1170.87 948.924 1173.51 951.72 1176.81 953.65C1180.12 955.58 1183.79 956.546 1187.8 956.548C1191.82 956.548 1195.5 955.582 1198.85 953.65C1202.2 951.722 1204.86 948.926 1206.82 945.261C1208.79 941.597 1209.78 937.323 1209.78 932.439C1209.78 927.555 1208.79 923.301 1206.82 919.678ZM1158.98 914.892C1161.65 909.892 1165.34 906.012 1170.02 903.252C1174.71 900.496 1179.97 899.118 1185.8 899.118C1190.84 899.118 1195.52 900.28 1199.85 902.603C1204.19 904.927 1207.49 907.98 1209.78 911.762V877.493H1220.65V964.937H1209.78V952.764C1207.65 956.624 1204.5 959.795 1200.33 962.277C1196.15 964.759 1191.27 966 1185.68 966C1179.93 966 1174.71 964.582 1170.02 961.745C1165.34 958.911 1161.65 954.932 1158.98 949.81C1156.3 944.691 1154.96 938.861 1154.96 932.321C1154.96 925.703 1156.3 919.893 1158.98 914.892Z" fill="currentColor"/>
<path d="M1296.26 900.181V964.937H1285.5V955.365C1283.46 958.675 1280.6 961.255 1276.94 963.105C1273.28 964.955 1269.24 965.881 1264.83 965.883C1259.79 965.883 1255.26 964.838 1251.24 962.75C1247.22 960.665 1244.05 957.534 1241.73 953.357C1239.41 949.183 1238.25 944.101 1238.25 938.112V900.181H1248.88V936.696C1248.88 943.076 1250.49 947.979 1253.72 951.407C1256.95 954.834 1261.36 956.548 1266.96 956.548C1272.71 956.548 1277.23 954.776 1280.54 951.231C1283.85 947.686 1285.5 942.526 1285.5 935.751V900.181H1296.26Z" fill="currentColor"/>
<path d="M1324.02 963.46C1320.08 961.767 1316.97 959.403 1314.69 956.369C1312.4 953.337 1311.14 949.851 1310.91 945.913H1322.01C1322.33 949.143 1323.84 951.782 1326.56 953.829C1329.28 955.879 1332.84 956.902 1337.25 956.901C1341.35 956.901 1344.58 955.995 1346.94 954.184C1349.3 952.372 1350.48 950.087 1350.48 947.331C1350.48 944.493 1349.22 942.386 1346.71 941.009C1344.18 939.63 1340.28 938.27 1335.01 936.931C1330.2 935.67 1326.28 934.39 1323.25 933.091C1320.23 931.802 1317.56 929.818 1315.46 927.3C1313.29 924.743 1312.2 921.375 1312.21 917.197C1312.21 913.888 1313.19 910.855 1315.16 908.097C1317.13 905.343 1319.92 903.157 1323.55 901.54C1327.17 899.925 1331.31 899.118 1335.95 899.118C1343.12 899.118 1348.91 900.93 1353.32 904.553C1357.73 908.178 1360.09 913.141 1360.41 919.443H1349.66C1349.42 916.056 1348.06 913.338 1345.58 911.289C1343.1 909.241 1339.77 908.217 1335.6 908.217C1331.74 908.217 1328.67 909.044 1326.38 910.699C1324.1 912.353 1322.96 914.519 1322.96 917.197C1322.96 919.326 1323.64 921.079 1325.02 922.455C1326.4 923.835 1328.13 924.938 1330.22 925.765C1332.31 926.592 1335.2 927.518 1338.91 928.542C1343.55 929.803 1347.33 931.043 1350.25 932.263C1353.15 933.478 1355.72 935.361 1357.75 937.759C1359.84 940.202 1360.92 943.393 1361 947.331C1361 950.876 1360.01 954.066 1358.04 956.901C1356.08 959.737 1353.3 961.963 1349.72 963.578C1346.13 965.193 1342.02 966 1337.37 966C1332.41 966 1327.96 965.153 1324.02 963.46Z" fill="currentColor"/>
<path d="M1389.23 909.043V947.211C1389.23 950.363 1389.9 952.588 1391.24 953.888C1392.58 955.188 1394.9 955.838 1398.21 955.838H1406.13V964.937H1396.44C1390.45 964.937 1385.96 963.558 1382.97 960.8C1379.98 958.042 1378.48 953.512 1378.48 947.211V909.043H1370.09V900.181H1378.48V883.873H1389.23V900.181H1406.13V909.043H1389.23Z" fill="currentColor"/>
<path d="M1437.97 902.072C1441.47 900.024 1445.75 899.001 1450.79 899.001V910.108H1447.95C1435.9 910.108 1429.88 916.646 1429.88 929.723V964.937H1419.13V900.181H1429.88V910.699C1431.77 906.997 1434.46 904.121 1437.97 902.072Z" fill="currentColor"/>
<path d="M1473.94 964.937H1463.19V900.181H1473.94V964.937ZM1463.55 887.537C1462.13 886.12 1461.42 884.387 1461.42 882.337C1461.42 880.29 1462.13 878.557 1463.55 877.137C1464.96 875.72 1466.69 875.011 1468.74 875.011C1470.71 875.011 1472.39 875.72 1473.76 877.137C1475.14 878.557 1475.83 880.29 1475.83 882.337C1475.83 884.385 1475.14 886.118 1473.76 887.537C1473.12 888.222 1472.34 888.764 1471.48 889.13C1470.61 889.497 1469.68 889.678 1468.74 889.663C1466.69 889.663 1464.96 888.955 1463.55 887.537Z" fill="currentColor"/>
<path d="M1540.1 919.678C1538.13 916.054 1535.47 913.278 1532.13 911.348C1528.78 909.418 1525.1 908.452 1521.08 908.452C1517.06 908.452 1513.4 909.398 1510.09 911.289C1506.78 913.18 1504.14 915.937 1502.18 919.56C1500.21 923.184 1499.22 927.437 1499.22 932.321C1499.22 937.284 1500.21 941.597 1502.18 945.261C1504.14 948.924 1506.78 951.72 1510.09 953.65C1513.4 955.58 1517.06 956.546 1521.08 956.548C1525.1 956.548 1528.78 955.582 1532.13 953.65C1535.47 951.722 1538.13 948.926 1540.1 945.261C1542.07 941.597 1543.05 937.323 1543.06 932.439C1543.05 927.555 1542.07 923.301 1540.1 919.678ZM1492.25 914.892C1494.93 909.892 1498.61 906.012 1503.3 903.252C1507.98 900.496 1513.2 899.118 1518.95 899.118C1524.62 899.118 1529.55 900.339 1533.72 902.78C1537.89 905.221 1541.01 908.293 1543.06 911.997V900.181H1553.92V964.937H1543.06V952.884C1540.93 956.664 1537.76 959.795 1533.54 962.277C1529.33 964.759 1524.43 966 1518.83 966C1513.09 966 1507.89 964.582 1503.24 961.745C1498.59 958.911 1494.93 954.932 1492.25 949.81C1489.57 944.691 1488.23 938.861 1488.23 932.321C1488.23 925.703 1489.57 919.893 1492.25 914.892Z" fill="currentColor"/>
<path d="M1582.87 964.937H1572.12V877.493H1582.87V964.937Z" fill="currentColor"/>
<path d="M206.168 156H331.658L398.384 339.089H266.665L206.168 156Z" fill="currentColor"/>
</svg>
