<svg width="1727" height="582" viewBox="0 0 1727 582" fill="none" xmlns="http://www.w3.org/2000/svg">
<g clip-path="url(#clip0_296_243)">
<path fill-rule="evenodd" clip-rule="evenodd" d="M320.262 -0.136719C321.648 -0.136719 323.034 -0.136719 324.42 -0.136719C341.257 1.77908 352.205 10.8367 357.263 27.0362C360.332 41.67 356.313 53.9161 345.207 63.7751C333.89 72.2581 321.604 74.0143 308.344 69.0434C297.011 63.7577 289.896 55.0235 287.003 42.8409C224.782 44.7366 171.197 66.9649 126.248 109.525C76.5445 159.023 52.2928 219.053 53.4931 289.616C56.1367 347.735 76.6467 398.385 115.023 441.562C163.01 492.98 222.369 519.183 293.1 520.17C299.483 521.847 301.748 525.868 299.891 532.231C298.735 534.865 296.748 536.484 293.932 537.083C226.031 536.97 167.18 514.142 117.379 468.596C66.7085 420.112 39.6852 360.637 36.3091 290.17C34.8725 218.755 58.2465 157.015 106.431 104.95C156.092 54.0811 216.652 27.5551 288.111 25.3726C290.73 16.7919 295.814 10.0911 303.355 5.27014C308.621 2.20463 314.256 0.402345 320.262 -0.136719ZM319.985 18.1634C329.312 17.7178 335.731 21.7845 339.248 30.3635C341.57 40.4555 338.106 47.8033 328.854 52.4069C319.217 55.3249 311.781 52.5059 306.543 43.95C302.745 34.5143 304.916 26.7969 313.056 20.7975C315.265 19.554 317.576 18.6759 319.985 18.1634Z" fill="#F3A212"/>
<path fill-rule="evenodd" clip-rule="evenodd" d="M287.28 105.505C343.07 103.643 390.509 122.405 429.603 161.792C466.54 201.654 483.261 248.883 479.769 303.479C474.85 354.409 453.092 396.416 414.497 429.501C404.237 438.002 393.15 445.303 381.238 451.405C374.503 452.706 370.623 449.98 369.597 443.226C369.708 440.464 370.817 438.199 372.923 436.433C411.474 415.795 438.405 384.97 453.716 343.961C467.97 301.513 466.03 259.83 447.896 218.91C427.751 177.068 395.925 148.093 352.413 131.985C321.759 121.441 290.625 119.778 259.009 126.994C219.787 136.779 188.052 157.713 163.804 189.797C144.01 216.803 133.246 247.118 131.514 280.743C146.58 285.049 155.496 294.939 158.261 310.411C159.807 326.865 153.479 339.203 139.275 347.427C124.908 353.91 111.512 352.341 99.0864 342.714C88.2338 332.424 84.5847 319.994 88.1385 305.42C92.2893 292.441 100.927 284.123 114.053 280.465C117.81 224.28 141.461 178.668 185.007 143.63C215.167 120.615 249.258 107.906 287.28 105.505ZM120.705 297.657C129.682 297.407 135.918 301.38 139.414 309.579C141.81 318.286 139.362 325.262 132.069 330.514C123.58 334.953 115.958 333.797 109.203 327.048C103.803 319.855 103.525 312.46 108.371 304.866C111.598 300.92 115.709 298.516 120.705 297.657Z" fill="#F3A212"/>
<path fill-rule="evenodd" clip-rule="evenodd" d="M294.486 139.333C340.015 139.307 377.94 156.128 408.261 189.797C436.554 223.689 448.103 262.693 442.907 306.807C435.673 351.991 412.992 386.972 374.863 411.755C348.835 427.507 320.564 434.949 290.051 434.076C284.638 451.137 272.998 460.192 255.129 461.249C239.407 460.531 228.274 453.044 221.731 438.789C216.428 423.367 219.522 409.92 231.016 398.446C241.3 389.828 252.941 387.333 265.938 390.96C278.438 395.241 286.476 403.742 290.051 416.469C330.276 417.758 364.32 404.033 392.186 375.294C419.497 344.707 430.675 308.939 425.722 267.988C418.638 225.634 396.604 193.793 359.619 172.467C339.838 161.712 318.68 156.351 296.149 156.385C290.431 155.437 287.798 152.064 288.25 146.264C289.037 142.753 291.116 140.442 294.486 139.333ZM253.466 407.457C264.097 407.604 270.518 412.873 272.729 423.262C273.235 430.521 270.509 436.205 264.552 440.314C257.469 444.13 250.632 443.758 244.042 439.205C236.411 431.874 235.349 423.695 240.855 414.667C244.142 410.643 248.345 408.239 253.466 407.457Z" fill="#F3A212"/>
<path fill-rule="evenodd" clip-rule="evenodd" d="M281.736 581.863C274.9 581.863 268.063 581.863 261.226 581.863C195.622 578.469 138.434 555.04 89.6628 511.574C34.5956 460.583 4.80063 397.409 0.277923 322.057C0.0161555 317.143 0.108543 312.244 0.555086 307.361C3.21546 302.345 7.23432 300.82 12.6117 302.786C14.804 303.984 16.236 305.786 16.9077 308.193C18.0145 381.723 44.7608 443.972 97.1462 494.938C151.633 545.246 216.119 568.26 290.606 563.979C325.908 561.217 359.073 551.374 390.107 534.449C384.835 518.523 388.347 504.889 400.639 493.551C411.493 485.288 423.411 483.348 436.393 487.728C451.111 494.106 458.78 505.335 459.398 521.417C458.904 536.324 452.067 547.185 438.888 553.997C424.933 559.681 411.997 557.971 400.085 548.868C363.172 568.984 323.721 579.981 281.736 581.863ZM420.872 503.672C429.963 503.029 436.385 506.819 440.135 515.04C443.001 525.435 439.628 533.06 430.018 537.915C419.678 540.877 412.056 537.596 407.153 528.072C404.184 519.052 406.54 511.796 414.22 506.306C416.352 505.119 418.569 504.24 420.872 503.672Z" fill="#F3A212"/>
<path fill-rule="evenodd" clip-rule="evenodd" d="M1658.4 129.903C1681.16 129.418 1703.51 132.144 1725.48 138.082C1726.23 139.049 1726.6 140.158 1726.58 141.409C1726.36 152.913 1726.22 164.42 1726.17 175.93C1725.81 176.228 1725.39 176.413 1724.92 176.485C1704.44 171.431 1683.65 168.658 1662.56 168.167C1650.36 168.002 1638.54 169.989 1627.08 174.128C1622.27 176.028 1617.74 178.432 1613.5 181.337C1607.98 186.219 1605.39 192.366 1605.74 199.776C1606.1 214.055 1606.1 228.335 1605.74 242.615C1605.29 252.43 1609.26 259.824 1617.66 264.797C1627.14 269.747 1637.22 272.797 1647.87 273.947C1666.46 275.373 1684.94 274.448 1703.3 271.174C1710.99 269.829 1718.66 268.397 1726.31 266.876C1726.4 279.606 1726.31 292.314 1726.03 305.002C1716.85 307.594 1707.52 309.444 1698.04 310.547C1679.97 312.813 1661.86 313.273 1643.71 311.934C1622.99 310.289 1603.5 304.558 1585.23 294.743C1580.14 291.92 1575.34 288.684 1570.82 285.038C1562.92 277.787 1558.72 268.775 1558.21 258.004C1558.02 234.528 1558.02 211.052 1558.21 187.576C1558.27 181.544 1559.38 175.721 1561.53 170.107C1563.79 165.55 1566.89 161.622 1570.82 158.323C1591.82 142.351 1615.56 133.293 1642.05 131.15C1647.53 130.627 1652.99 130.211 1658.4 129.903Z" fill="currentColor"/>
<path fill-rule="evenodd" clip-rule="evenodd" d="M571.094 132.675C585.506 132.629 599.919 132.675 614.331 132.814C615.531 132.906 616.734 132.999 617.934 133.091C618.073 133.23 618.211 133.368 618.35 133.507C618.716 155.951 618.902 178.41 618.904 200.885C619.007 201.139 619.145 201.37 619.32 201.578C635.057 201.9 650.808 202.039 666.576 201.994C682.344 202.039 698.095 201.9 713.832 201.578C714.218 201.253 714.451 200.838 714.525 200.33C714.742 179.996 714.694 159.662 714.387 139.33C714.434 137.851 714.478 136.372 714.525 134.894C714.536 133.682 715.135 132.989 716.327 132.814C717.898 132.768 719.467 132.722 721.039 132.675C732.68 133.045 744.32 133.045 755.961 132.675C757.829 132.646 759.678 132.784 761.504 133.091C761.829 133.23 762.059 133.461 762.197 133.784C762.383 192.197 762.383 250.609 762.197 309.022C762.059 309.347 761.829 309.577 761.504 309.715C746.075 309.901 730.648 309.901 715.218 309.715C715.08 309.577 714.941 309.438 714.803 309.299C714.506 307.7 714.367 306.083 714.387 304.447C714.7 282.958 714.744 261.471 714.525 239.981C714.451 239.474 714.218 239.058 713.832 238.733C698.103 238.411 682.35 238.272 666.576 238.317C650.803 238.272 635.049 238.411 619.32 238.733C619.181 238.872 619.043 239.01 618.904 239.149C618.902 262.555 618.719 285.939 618.35 309.299C618.211 309.438 618.073 309.577 617.934 309.715C602.322 309.854 586.706 309.901 571.094 309.854C571.094 250.794 571.094 191.735 571.094 132.675Z" fill="currentColor"/>
<path fill-rule="evenodd" clip-rule="evenodd" d="M792.269 132.675C805.388 133.011 818.508 133.011 831.627 132.675C833.198 132.722 834.767 132.768 836.338 132.814C837.788 133.073 838.481 133.951 838.417 135.448C838.464 136.649 838.509 137.851 838.556 139.053C838.578 175.744 838.531 212.437 838.417 249.131C839.528 258.804 844.47 265.69 853.245 269.788C872.832 278.392 892.511 278.669 912.281 270.62C915.878 269.098 919.204 267.158 922.259 264.797C926.347 260.914 928.703 256.154 929.326 250.517C929.326 211.492 929.512 172.488 929.881 133.507C930.205 133.121 930.621 132.89 931.128 132.814C932.882 132.768 934.64 132.722 936.394 132.675C947.805 133.044 959.213 133.044 970.624 132.675C972.63 132.644 974.618 132.783 976.583 133.091C977.084 133.877 977.361 134.755 977.414 135.725C977.184 176.758 977.045 217.795 976.998 258.835C976.802 272.676 971.214 283.721 960.23 291.97C946.122 302.717 930.233 309.371 912.558 311.934C887.292 316.123 862.347 314.737 837.724 307.774C824.991 303.701 813.628 297.324 803.633 288.642C795.795 281.042 791.59 271.755 791.022 260.776C790.709 219.23 790.476 177.685 790.329 136.141C790.16 134.457 790.806 133.302 792.269 132.675Z" fill="currentColor"/>
<path fill-rule="evenodd" clip-rule="evenodd" d="M1007.35 132.675C1042.46 132.868 1077.56 133.007 1112.67 133.091C1125.07 133.226 1137.17 135.167 1148.98 138.914C1157.45 142.126 1164.79 146.978 1171.01 153.471C1173.78 158.001 1175.63 162.9 1176.56 168.167C1179.22 179.914 1178.85 191.56 1175.45 203.103C1173.7 207.54 1170.97 211.283 1167.27 214.333C1164.61 216.39 1161.84 218.285 1158.96 220.017C1162.69 222.319 1166.38 224.676 1170.04 227.087C1176.85 232.067 1180.78 238.768 1181.82 247.19C1182.08 256.07 1181.99 264.942 1181.54 273.808C1180.44 279.906 1177.85 285.265 1173.78 289.89C1163.43 300.962 1150.63 307.109 1135.4 308.329C1129.13 309.05 1122.85 309.51 1116.55 309.715C1079.77 309.945 1043 309.898 1006.24 309.577C1005.94 309.252 1005.71 308.884 1005.55 308.468C1005.36 250.425 1005.36 192.382 1005.55 134.339C1005.63 133.988 1005.77 133.664 1005.96 133.369C1006.46 133.159 1006.93 132.928 1007.35 132.675ZM1053.91 169.276C1069.52 169.229 1085.14 169.276 1100.75 169.414C1104.82 169.52 1108.89 169.705 1112.95 169.969C1127.09 171.093 1132.68 178.626 1129.71 192.567C1128.66 196.95 1126.03 199.954 1121.82 201.578C1119.93 202.252 1117.99 202.714 1116 202.965C1110.93 203.461 1105.85 203.692 1100.75 203.658C1085.23 203.63 1069.71 203.584 1054.19 203.519C1053.79 203.39 1053.47 203.159 1053.22 202.826C1053.03 191.92 1053.03 181.013 1053.22 170.107C1053.41 169.777 1053.64 169.5 1053.91 169.276ZM1054.19 238.317C1072.39 238.271 1090.59 238.317 1108.79 238.456C1114.79 238.27 1120.61 239.194 1126.25 241.228C1131.89 243.768 1134.8 248.159 1134.98 254.399C1135.39 258.55 1134.56 262.432 1132.49 266.045C1130.71 268.376 1128.45 270.086 1125.7 271.174C1122.91 272.218 1120.05 272.957 1117.1 273.392C1096.14 273.832 1075.17 274.017 1054.19 273.947C1053.79 273.818 1053.47 273.587 1053.22 273.254C1053.03 261.885 1053.03 250.517 1053.22 239.149C1053.54 238.834 1053.86 238.557 1054.19 238.317Z" fill="currentColor"/>
<path fill-rule="evenodd" clip-rule="evenodd" d="M1191.66 132.675C1249.03 132.629 1306.41 132.675 1363.78 132.814C1364.43 132.844 1364.85 133.168 1365.03 133.784C1365.21 145.245 1365.21 156.706 1365.03 168.167C1364.89 168.675 1364.56 168.998 1364.06 169.137C1343.64 169.229 1323.22 169.322 1302.8 169.414C1302.2 169.645 1301.79 170.061 1301.56 170.662C1301.46 216.69 1301.37 262.717 1301.28 308.745C1301.14 309.252 1300.82 309.577 1300.31 309.715C1285.16 309.901 1270.01 309.901 1254.85 309.715C1254.53 309.577 1254.3 309.347 1254.16 309.022C1253.84 297.715 1253.7 286.394 1253.75 275.056C1253.84 252.227 1253.94 229.398 1254.02 206.569C1254.07 194.403 1253.93 182.249 1253.61 170.107C1253.36 169.774 1253.03 169.543 1252.64 169.414C1231.84 169.186 1211.05 169.232 1190.27 169.553C1190.23 157.537 1190.27 145.522 1190.41 133.507C1190.8 133.152 1191.22 132.875 1191.66 132.675Z" fill="currentColor"/>
<path fill-rule="evenodd" clip-rule="evenodd" d="M1384.01 132.675C1434.82 132.988 1485.64 133.034 1536.45 132.814C1537.01 132.939 1537.52 133.17 1537.98 133.507C1538.43 145.044 1538.52 156.597 1538.25 168.167C1538.11 168.675 1537.79 168.998 1537.28 169.137C1501.81 169.229 1466.33 169.322 1430.85 169.414C1430.2 169.445 1429.78 169.768 1429.6 170.385C1429.42 180.921 1429.42 191.458 1429.6 201.994C1429.78 202.61 1430.2 202.934 1430.85 202.965C1462.27 203.135 1493.68 203.135 1525.09 202.965C1525.78 202.99 1526.38 203.221 1526.89 203.658C1527.21 209.456 1527.35 215.279 1527.3 221.126C1527.26 226.764 1527.21 232.402 1527.17 238.04C1527.06 238.294 1526.92 238.525 1526.75 238.733C1494.81 239.101 1462.84 239.286 1430.85 239.288C1430.36 239.505 1429.94 239.828 1429.6 240.258C1429.42 251.164 1429.42 262.07 1429.6 272.976C1429.95 273.542 1430.46 273.865 1431.13 273.947C1461.06 274.139 1491 274.093 1520.93 273.808C1526.49 273.769 1532.03 273.907 1537.56 274.224C1537.89 274.475 1538.12 274.798 1538.25 275.195C1538.44 286.377 1538.44 297.562 1538.25 308.745C1538.12 309.141 1537.89 309.466 1537.56 309.715C1486.01 309.901 1434.46 309.901 1382.9 309.715C1382.65 309.613 1382.42 309.474 1382.21 309.299C1381.75 251.087 1381.66 192.859 1381.93 134.616C1382.24 133.518 1382.94 132.871 1384.01 132.675Z" fill="currentColor"/>
<path fill-rule="evenodd" clip-rule="evenodd" d="M1481.3 363.091C1481.66 363.809 1481.84 364.641 1481.85 365.586C1481.84 366.487 1481.75 367.366 1481.57 368.22C1476.15 371.373 1470.74 374.562 1465.36 377.786C1465.13 376.206 1465.18 374.636 1465.5 373.073C1470.83 369.809 1476.09 366.482 1481.3 363.091Z" fill="currentColor"/>
<path fill-rule="evenodd" clip-rule="evenodd" d="M1564.17 364.2C1568.28 364.103 1569.89 366.044 1569.02 370.023C1568.59 370.918 1567.89 371.52 1566.94 371.825C1562.37 372.704 1560.47 370.902 1561.26 366.418C1561.89 365.181 1562.86 364.444 1564.17 364.2Z" fill="currentColor"/>
<path fill-rule="evenodd" clip-rule="evenodd" d="M1011.51 365.586C1013.45 365.586 1015.39 365.586 1017.33 365.586C1017.33 385.181 1017.33 404.773 1017.33 424.368C1015.39 424.368 1013.45 424.368 1011.51 424.368C1011.55 420.947 1011.51 417.528 1011.37 414.109C1008.63 420.176 1003.96 423.734 997.37 424.784C985.352 425.871 977.73 420.65 974.504 409.118C972.819 401.335 974.113 394.126 978.384 387.491C984.238 381.133 991.4 378.962 999.864 380.975C1005.34 382.478 1009.17 385.852 1011.37 391.095C1011.51 382.594 1011.55 374.09 1011.51 365.586ZM993.212 385.55C1004.83 385.298 1011.02 390.982 1011.78 402.602C1010.68 415.257 1003.84 420.803 991.272 419.239C984.8 417.345 981.059 413.047 980.047 406.346C978.919 400.002 980.443 394.412 984.62 389.57C987.156 387.469 990.019 386.129 993.212 385.55Z" fill="currentColor"/>
<path fill-rule="evenodd" clip-rule="evenodd" d="M1426.14 365.586C1428.08 365.586 1430.02 365.586 1431.96 365.586C1431.96 385.181 1431.96 404.773 1431.96 424.368C1430.02 424.368 1428.08 424.368 1426.14 424.368C1426.14 404.773 1426.14 385.181 1426.14 365.586Z" fill="currentColor"/>
<path fill-rule="evenodd" clip-rule="evenodd" d="M572.202 368.359C582.18 368.359 592.158 368.359 602.136 368.359C602.136 369.931 602.136 371.501 602.136 373.073C594.098 373.073 586.061 373.073 578.023 373.073C578.023 380.005 578.023 386.936 578.023 393.868C585.32 393.868 592.621 393.868 599.919 393.868C599.919 395.44 599.919 397.01 599.919 398.582C592.621 398.582 585.32 398.582 578.023 398.582C578.023 405.605 578.023 412.631 578.023 419.655C586.061 419.655 594.098 419.655 602.136 419.655C602.136 421.227 602.136 422.796 602.136 424.369C592.158 424.369 582.18 424.369 572.202 424.369C572.202 405.7 572.202 387.028 572.202 368.359Z" fill="currentColor"/>
<path fill-rule="evenodd" clip-rule="evenodd" d="M1157.57 368.359C1170.13 368.359 1182.7 368.359 1195.26 368.359C1195.26 369.931 1195.26 371.501 1195.26 373.073C1189.91 373.073 1184.55 373.073 1179.19 373.073C1179.19 390.172 1179.19 407.269 1179.19 424.369C1177.25 424.369 1175.31 424.369 1173.37 424.369C1173.37 407.269 1173.37 390.172 1173.37 373.073C1168.1 373.073 1162.84 373.073 1157.57 373.073C1157.57 371.501 1157.57 369.931 1157.57 368.359Z" fill="currentColor"/>
<path fill-rule="evenodd" clip-rule="evenodd" d="M636.504 380.005C647.02 379.666 653.162 384.657 654.935 394.977C655.074 404.773 655.121 414.572 655.074 424.368C653.225 424.368 651.379 424.368 649.531 424.368C649.578 415.587 649.531 406.806 649.392 398.027C648.902 389.726 644.514 385.384 636.227 384.995C628.27 385.425 623.696 389.584 622.507 397.473C622.369 406.437 622.322 415.401 622.369 424.368C620.337 424.368 618.303 424.368 616.271 424.368C616.271 409.859 616.271 395.346 616.271 380.836C618.303 380.836 620.337 380.836 622.369 380.836C622.322 383.889 622.369 386.939 622.507 389.986C625.243 383.972 629.91 380.645 636.504 380.005Z" fill="currentColor"/>
<path fill-rule="evenodd" clip-rule="evenodd" d="M800.862 380.005C809.237 379.614 814.872 383.31 817.768 391.095C820.69 384.017 826 380.318 833.705 380.005C840.751 380.06 845.834 383.201 848.949 389.432C849.628 391.132 850.091 392.887 850.335 394.7C850.474 404.59 850.521 414.478 850.474 424.368C848.533 424.368 846.593 424.368 844.653 424.368C844.783 414.375 844.645 404.394 844.237 394.423C842.536 388.439 838.564 385.389 832.319 385.273C824.418 385.689 819.983 389.848 819.016 397.75C818.877 406.623 818.83 415.496 818.877 424.368C816.937 424.368 814.997 424.368 813.057 424.368C813.104 415.31 813.057 406.251 812.918 397.196C812.195 389.679 808.084 385.705 800.584 385.273C794.966 385.214 790.947 387.71 788.528 392.759C787.804 394.733 787.342 396.766 787.142 398.859C787.003 407.36 786.956 415.864 787.003 424.368C785.063 424.368 783.123 424.368 781.183 424.368C781.183 409.859 781.183 395.346 781.183 380.836C783.123 380.836 785.063 380.836 787.003 380.836C786.956 383.889 787.003 386.939 787.142 389.986C789.728 383.911 794.301 380.584 800.862 380.005Z" fill="currentColor"/>
<path fill-rule="evenodd" clip-rule="evenodd" d="M941.106 380.005C951.743 379.697 957.885 384.779 959.537 395.255C959.676 404.959 959.723 414.664 959.676 424.368C957.827 424.368 955.981 424.368 954.132 424.368C954.18 415.864 954.132 407.36 953.994 398.859C953.226 388.572 947.73 384.089 937.503 385.411C931.405 386.984 927.941 390.913 927.109 397.196C926.718 406.249 926.58 415.304 926.693 424.368C924.753 424.368 922.813 424.368 920.873 424.368C920.873 409.859 920.873 395.346 920.873 380.836C922.813 380.836 924.753 380.836 926.693 380.836C926.646 384.072 926.693 387.308 926.832 390.541C929.47 384.161 934.229 380.648 941.106 380.005Z" fill="currentColor"/>
<path fill-rule="evenodd" clip-rule="evenodd" d="M1335.51 380.005C1346.08 379.769 1352.23 384.851 1353.94 395.255C1354.08 404.959 1354.13 414.664 1354.08 424.368C1352.23 424.368 1350.38 424.368 1348.53 424.368C1348.65 414.844 1348.51 405.323 1348.12 395.809C1345.93 387.203 1340.44 383.737 1331.63 385.411C1327.35 386.451 1324.35 388.994 1322.62 393.036C1321.8 395.277 1321.34 397.587 1321.23 399.968C1321.1 408.101 1321.05 416.233 1321.1 424.368C1319.16 424.368 1317.22 424.368 1315.28 424.368C1315.28 409.859 1315.28 395.346 1315.28 380.836C1317.22 380.836 1319.16 380.836 1321.1 380.836C1321.05 384.072 1321.1 387.308 1321.23 390.541C1323.87 384.161 1328.63 380.648 1335.51 380.005Z" fill="currentColor"/>
<path fill-rule="evenodd" clip-rule="evenodd" d="M688.334 380.282C695.712 379.614 701.948 381.926 707.042 387.214C709.215 389.992 710.556 393.133 711.061 396.641C709.021 396.732 706.987 396.641 704.963 396.364C703.663 390.951 700.337 387.485 694.985 385.966C684.218 384.116 677.704 388.506 675.445 399.136C674.617 404.524 675.634 409.515 678.494 414.109C683.001 419.217 688.591 420.925 695.263 419.239C700.523 417.811 703.758 414.437 704.963 409.118C706.995 408.75 709.029 408.75 711.061 409.118C708.907 418.252 703.178 423.473 693.877 424.784C678.347 425.613 670.124 418.266 669.209 402.741C669.373 389.831 675.748 382.345 688.334 380.282Z" fill="currentColor"/>
<path fill-rule="evenodd" clip-rule="evenodd" d="M742.657 380.282C757.851 380.002 765.889 387.441 766.771 402.602C765.764 418.213 757.45 425.605 741.826 424.784C729.742 422.394 723.553 415.002 723.256 402.602C723.688 389.834 730.157 382.395 742.657 380.282ZM742.38 385.55C752.433 384.818 758.486 389.346 760.534 399.137C761.524 405.006 760.232 410.275 756.654 414.941C751.565 419.658 745.698 420.905 739.054 418.684C733.489 416.286 730.302 412.08 729.492 406.068C728.772 401.155 729.603 396.533 731.987 392.205C734.55 388.545 738.015 386.326 742.38 385.55Z" fill="currentColor"/>
<path fill-rule="evenodd" clip-rule="evenodd" d="M883.456 380.282C891 379.608 897.331 382.009 902.442 387.491C905.959 392.51 907.206 398.055 906.183 404.127C894.265 404.127 882.347 404.127 870.429 404.127C870.77 413.987 875.853 419.35 885.673 420.209C891.336 420.223 895.723 417.911 898.838 413.278C899.451 411.947 899.867 410.56 900.086 409.118C902.117 409.118 904.152 409.118 906.183 409.118C904.878 416.572 900.629 421.518 893.434 423.953C886.563 425.844 880.005 425.103 873.755 421.734C868.938 418.293 866.028 413.627 865.025 407.732C863.8 400.645 865.094 394.082 868.905 388.046C872.683 383.451 877.533 380.864 883.456 380.282ZM885.396 384.995C895.488 385.478 900.568 390.746 900.64 400.8C890.571 400.8 880.499 400.8 870.429 400.8C870.984 391.256 875.973 385.988 885.396 384.995Z" fill="currentColor"/>
<path fill-rule="evenodd" clip-rule="evenodd" d="M1050.03 380.282C1056.68 379.711 1062.27 381.837 1066.8 386.659C1068.01 388.154 1068.93 389.817 1069.57 391.65C1069.71 388.046 1069.76 384.441 1069.71 380.836C1071.65 380.836 1073.59 380.836 1075.53 380.836C1075.53 395.346 1075.53 409.859 1075.53 424.369C1073.59 424.369 1071.65 424.369 1069.71 424.369C1069.76 420.855 1069.71 417.342 1069.57 413.832C1065.47 422.375 1058.68 426.027 1049.2 424.784C1039.98 423.143 1034.39 417.736 1032.43 408.564C1030.87 400.831 1032.26 393.713 1036.59 387.214C1040.2 383.168 1044.68 380.856 1050.03 380.282ZM1051.14 385.55C1060.68 384.896 1066.74 389.146 1069.29 398.305C1070.42 403.922 1069.4 409.099 1066.24 413.832C1060.78 419.691 1054.27 421.216 1046.7 418.407C1041.64 415.74 1038.73 411.533 1037.97 405.791C1037.34 400.983 1038.17 396.453 1040.47 392.205C1043.1 388.464 1046.65 386.246 1051.14 385.55Z" fill="currentColor"/>
<path fill-rule="evenodd" clip-rule="evenodd" d="M1102.97 380.282C1107.69 379.885 1112.04 380.95 1116 383.47C1119.43 386.318 1121.37 389.97 1121.82 394.423C1119.97 394.423 1118.12 394.423 1116.27 394.423C1114.84 387.325 1110.5 384.136 1103.25 384.857C1097.3 385.983 1095.13 389.449 1096.73 395.255C1098.32 397.32 1100.39 398.66 1102.97 399.275C1107.3 400.218 1111.54 401.418 1115.72 402.88C1121.08 405.53 1123.16 409.828 1121.95 415.773C1120.63 420.531 1117.54 423.442 1112.67 424.507C1106.3 425.816 1100.48 424.615 1095.21 420.903C1092.25 418.174 1090.59 414.8 1090.22 410.782C1092.07 410.782 1093.91 410.782 1095.76 410.782C1096.44 415.756 1099.21 418.854 1104.08 420.071C1107.33 420.836 1110.47 420.559 1113.5 419.239C1116.86 416.4 1117.55 413.028 1115.58 409.118C1114.29 407.685 1112.72 406.67 1110.87 406.068C1106.14 404.92 1101.48 403.581 1096.87 402.048C1091.21 399.084 1089.32 394.509 1091.19 388.323C1092.8 384.499 1095.61 382.048 1099.64 380.975C1100.79 380.742 1101.9 380.512 1102.97 380.282Z" fill="currentColor"/>
<path fill-rule="evenodd" clip-rule="evenodd" d="M1223.81 380.282C1231.2 379.616 1237.44 381.929 1242.52 387.214C1246.25 392.26 1247.59 397.897 1246.54 404.127C1234.62 404.127 1222.7 404.127 1210.78 404.127C1211.61 415.715 1217.79 420.936 1229.35 419.793C1235.47 418.712 1239.16 415.155 1240.44 409.118C1242.47 409.118 1244.51 409.118 1246.54 409.118C1245.06 417.018 1240.44 422.056 1232.68 424.23C1226.15 425.81 1219.96 424.979 1214.11 421.734C1208.63 417.753 1205.63 412.346 1205.1 405.514C1204.38 399.167 1205.76 393.344 1209.26 388.046C1213.04 383.451 1217.89 380.864 1223.81 380.282ZM1225.75 384.995C1235.83 385.467 1240.91 390.735 1241 400.8C1230.93 400.8 1220.85 400.8 1210.78 400.8C1211.25 391.187 1216.24 385.919 1225.75 384.995Z" fill="currentColor"/>
<path fill-rule="evenodd" clip-rule="evenodd" d="M1278.14 380.282C1285.84 379.6 1292.26 382.095 1297.4 387.768C1299.34 390.413 1300.5 393.369 1300.86 396.641C1298.83 396.641 1296.8 396.641 1294.77 396.641C1293.54 390.38 1289.75 386.728 1283.4 385.689C1271.49 385.079 1265.39 390.763 1265.11 402.741C1265.15 413.086 1270.28 418.817 1280.49 419.932C1285.65 419.852 1289.81 417.817 1292.96 413.832C1293.92 412.293 1294.52 410.63 1294.77 408.841C1296.8 408.841 1298.83 408.841 1300.86 408.841C1299.31 417.473 1294.22 422.694 1285.62 424.507C1277.06 426.24 1269.81 423.975 1263.86 417.714C1259.88 411.955 1258.4 405.578 1259.43 398.582C1261.17 387.829 1267.4 381.729 1278.14 380.282Z" fill="currentColor"/>
<path fill-rule="evenodd" clip-rule="evenodd" d="M1387.61 380.282C1402.79 380.016 1410.83 387.455 1411.73 402.602C1411.18 416.644 1403.93 424.083 1389.97 424.923C1376.07 424.097 1368.82 416.702 1368.21 402.741C1368.04 394.531 1371.28 388.106 1377.91 383.47C1380.97 381.76 1384.21 380.698 1387.61 380.282ZM1387.06 385.55C1396.52 384.627 1402.57 388.694 1405.21 397.75C1406.34 403.118 1405.6 408.201 1403 413C1398.01 419.25 1391.68 421.147 1384.01 418.684C1378.56 416.366 1375.37 412.254 1374.45 406.346C1373.42 400.398 1374.71 395.038 1378.33 390.264C1380.76 387.777 1383.67 386.204 1387.06 385.55Z" fill="currentColor"/>
<path fill-rule="evenodd" clip-rule="evenodd" d="M1465.77 380.282C1472.74 379.694 1478.79 381.726 1483.93 386.382C1488.75 392.271 1490.6 399.017 1489.47 406.623C1487.86 417.112 1481.8 423.168 1471.32 424.784C1462.95 425.882 1456.07 423.248 1450.67 416.882C1446.2 409.8 1445.19 402.22 1447.62 394.146C1450.84 385.791 1456.89 381.172 1465.77 380.282ZM1465.22 385.55C1474.8 384.66 1480.86 388.819 1483.37 398.027C1484.4 403.068 1483.75 407.876 1481.43 412.446C1477.13 418.629 1471.26 420.891 1463.83 419.239C1457.46 417.392 1453.72 413.189 1452.61 406.623C1451.51 400.722 1452.72 395.363 1456.21 390.541C1458.69 387.893 1461.69 386.229 1465.22 385.55Z" fill="currentColor"/>
<path fill-rule="evenodd" clip-rule="evenodd" d="M1520.38 380.282C1527.88 379.68 1533.84 382.361 1538.25 388.323C1538.88 389.49 1539.44 390.693 1539.92 391.927C1540.05 388.231 1540.1 384.535 1540.05 380.836C1541.9 380.836 1543.75 380.836 1545.6 380.836C1545.64 396.827 1545.6 412.814 1545.46 428.805C1543.34 439.793 1536.69 445.339 1525.5 445.441C1517.16 445.752 1510.79 442.425 1506.38 435.46C1505.58 433.765 1504.98 432.01 1504.58 430.191C1506.53 430.1 1508.47 430.191 1510.4 430.469C1513.05 437.14 1518 440.467 1525.23 440.45C1534.24 439.838 1539.14 435.032 1539.92 426.032C1540.1 421.782 1540.1 417.528 1539.92 413.277C1536.72 421.027 1530.9 424.909 1522.45 424.923C1510.21 424.233 1503.47 417.764 1502.22 405.514C1501.4 398.238 1503.25 391.769 1507.76 386.105C1511.33 382.747 1515.53 380.806 1520.38 380.282ZM1521.48 385.55C1533.11 385.298 1539.29 390.982 1540.05 402.602C1538.95 415.257 1532.12 420.803 1519.54 419.239C1513.17 417.392 1509.43 413.189 1508.32 406.623C1507.25 400.731 1508.45 395.371 1511.92 390.541C1514.54 387.732 1517.72 386.069 1521.48 385.55Z" fill="currentColor"/>
<path fill-rule="evenodd" clip-rule="evenodd" d="M1601.31 380.282C1608.63 379.566 1614.87 381.785 1620.02 386.936C1622.27 389.69 1623.7 392.834 1624.31 396.364C1622.28 396.733 1620.25 396.733 1618.21 396.364C1616.72 390.386 1612.93 386.826 1606.85 385.689C1596.76 384.56 1590.71 388.952 1588.7 398.859C1587.99 403.554 1588.64 408.081 1590.64 412.446C1593.65 417.262 1598.04 419.757 1603.8 419.932C1611.34 419.818 1616.15 416.167 1618.21 408.98C1620.25 408.794 1622.28 408.794 1624.31 408.98C1622.22 418.191 1616.49 423.459 1607.13 424.784C1591.53 425.683 1583.31 418.335 1582.46 402.741C1582.59 389.956 1588.87 382.47 1601.31 380.282Z" fill="currentColor"/>
<path fill-rule="evenodd" clip-rule="evenodd" d="M1654.8 380.282C1664.03 379.555 1670.54 383.346 1674.34 391.65C1674.48 388.045 1674.53 384.441 1674.48 380.836C1676.33 380.836 1678.17 380.836 1680.02 380.836C1680.02 395.346 1680.02 409.859 1680.02 424.368C1678.17 424.368 1676.33 424.368 1674.48 424.368C1674.53 420.764 1674.48 417.159 1674.34 413.555C1671.04 421.055 1665.26 424.845 1657.02 424.923C1645.74 424.41 1639.04 418.587 1636.92 407.455C1635.72 400.237 1637.11 393.583 1641.08 387.491C1644.73 383.285 1649.31 380.881 1654.8 380.282ZM1655.91 385.55C1667.59 385.317 1673.78 391.046 1674.48 402.741C1673.36 415.374 1666.52 420.872 1653.97 419.239C1647.5 417.345 1643.75 413.047 1642.74 406.346C1641.67 400.221 1643.06 394.769 1646.9 389.986C1649.5 387.643 1652.51 386.166 1655.91 385.55Z" fill="currentColor"/>
<path fill-rule="evenodd" clip-rule="evenodd" d="M1726.86 410.505C1726.86 412.168 1726.86 413.832 1726.86 415.496C1725.17 420.922 1721.48 424.019 1715.78 424.784C1708.76 425.841 1702.8 423.853 1697.9 418.823C1696.22 416.499 1695.15 413.912 1694.71 411.059C1696.64 410.782 1698.58 410.691 1700.53 410.782C1701.38 416.206 1704.52 419.394 1709.95 420.348C1713.9 421.246 1717.27 420.276 1720.07 417.437C1721.49 414.936 1721.68 412.349 1720.63 409.673C1718.73 407.36 1716.28 405.927 1713.28 405.375C1709.54 404.532 1705.84 403.515 1702.19 402.325C1696.29 399.697 1694.11 395.213 1695.68 388.877C1697.44 384.352 1700.72 381.624 1705.52 380.698C1711.14 379.586 1716.31 380.601 1721.04 383.748C1724.17 386.629 1726.02 390.186 1726.58 394.423C1724.74 394.47 1722.89 394.423 1721.04 394.284C1719.39 387.283 1714.96 384.141 1707.74 384.857C1701.58 386.235 1699.59 389.887 1701.78 395.809C1703.61 397.811 1705.87 399.059 1708.57 399.552C1713.4 400.434 1718.01 401.915 1722.43 403.989C1724.74 405.608 1726.22 407.782 1726.86 410.505Z" fill="currentColor"/>
<path fill-rule="evenodd" clip-rule="evenodd" d="M1562.23 380.836C1564.17 380.836 1566.11 380.836 1568.05 380.836C1568.05 395.346 1568.05 409.859 1568.05 424.368C1566.11 424.368 1564.17 424.368 1562.23 424.368C1562.23 409.859 1562.23 395.346 1562.23 380.836Z" fill="currentColor"/>
</g>
<defs>
<clipPath id="clip0_296_243">
<rect width="1727" height="582" fill="currentColor"/>
</clipPath>
</defs>
</svg>
