<svg width="2162" height="609" viewBox="0 0 2162 609" fill="none" xmlns="http://www.w3.org/2000/svg">
<path d="M297.967 230.928C297.967 224.065 303.359 218.672 310.223 218.672H317.576C319.782 218.672 321.743 220.633 321.743 222.839V334.619C321.743 341.238 316.351 346.631 309.487 346.631H297.722C293.8 346.631 289.633 345.405 286.201 343.199C259.484 325.549 163.643 262.305 135.21 243.43C133.739 242.695 132.023 243.675 132.023 245.146V334.619C132.023 341.238 126.631 346.631 119.768 346.631H112.414C110.208 346.631 108.492 344.915 108.492 342.709V230.928C108.492 224.065 113.885 218.672 120.503 218.672H131.533C135.945 218.672 140.112 219.898 143.789 222.349L294.78 321.872C296.251 322.853 297.967 321.872 297.967 320.402V230.928Z" fill="currentColor"/>
<path d="M565.365 304.223H475.653C469.28 304.223 464.378 299.565 464.378 293.682C464.378 287.554 469.77 282.651 476.388 282.651H568.062C573.209 282.161 577.376 277.994 577.376 273.581C577.376 268.679 572.719 264.757 567.081 264.757H458.74C442.317 264.757 428.836 277.013 428.836 291.721V296.624C428.836 311.577 442.317 323.588 458.74 323.588H583.749C590.367 323.588 595.76 328.736 595.76 334.619V342.218C595.76 344.67 593.554 346.631 590.858 346.631H460.456C430.061 346.631 405.305 324.324 405.305 296.624V291.966C405.305 264.266 430.061 241.714 460.456 241.714H565.365C584.239 241.714 599.927 254.951 601.152 271.62C601.152 272.356 601.152 274.562 601.152 275.297C599.927 291.966 584.239 304.223 565.365 304.223Z" fill="currentColor"/>
<path d="M810.859 241.714C841.253 241.714 866.01 264.266 866.01 291.966V296.624C866.01 324.324 841.253 346.631 810.859 346.631H730.706C700.311 346.631 675.555 324.324 675.555 296.624V291.966C675.555 264.266 700.311 241.714 730.706 241.714H810.859ZM842.234 291.721C842.234 277.013 828.997 264.757 812.575 264.757H728.99C712.567 264.757 699.086 277.013 699.086 291.721V296.624C699.086 311.577 712.567 323.588 728.99 323.588H812.575C828.997 323.588 842.234 311.577 842.234 296.624V291.721Z" fill="currentColor"/>
<path d="M1096.69 284.367C1116.79 284.367 1131.99 297.359 1131.99 314.764C1131.99 332.413 1116.05 346.631 1096.69 346.631H948.149C945.452 346.631 943.246 344.67 943.246 342.218V334.619C943.246 328.736 948.639 323.588 955.257 323.588H1098.4C1103.8 323.588 1108.21 319.666 1108.21 314.764C1108.21 309.861 1103.8 305.694 1098.4 305.694H976.582C956.483 305.694 941.285 292.702 941.285 275.297C941.285 257.158 957.463 241.714 976.582 241.714H1125.12C1127.82 241.714 1130.27 243.675 1130.27 246.372V253.726C1130.27 259.854 1124.63 264.757 1118.01 264.757H974.866C969.474 264.757 965.062 270.64 965.062 275.297C965.062 280.2 969.474 284.367 974.866 284.367H1096.69Z" fill="currentColor"/>
<path d="M1367.26 304.223H1277.55C1271.17 304.223 1266.27 299.565 1266.27 293.682C1266.27 287.554 1271.66 282.651 1278.28 282.651H1369.95C1375.1 282.161 1379.27 277.994 1379.27 273.581C1379.27 268.679 1374.61 264.757 1368.97 264.757H1260.63C1244.21 264.757 1230.73 277.013 1230.73 291.721V296.624C1230.73 311.577 1244.21 323.588 1260.63 323.588H1385.64C1392.26 323.588 1397.65 328.736 1397.65 334.619V342.218C1397.65 344.67 1395.45 346.631 1392.75 346.631H1262.35C1231.95 346.631 1207.2 324.324 1207.2 296.624V291.966C1207.2 264.266 1231.95 241.714 1262.35 241.714H1367.26C1386.13 241.714 1401.82 254.951 1403.05 271.62C1403.05 272.356 1403.05 274.562 1403.05 275.297C1401.82 291.966 1386.13 304.223 1367.26 304.223Z" fill="currentColor"/>
<path d="M1669.61 241.714C1672.55 241.714 1674.75 243.675 1674.75 246.372V335.6C1674.75 341.728 1669.36 346.631 1662.5 346.631H1652.45C1648.28 346.631 1644.61 345.65 1641.42 343.689L1640.68 343.199L1508.32 264.021H1508.08C1508.08 264.021 1507.83 264.021 1507.83 264.266V335.6C1507.83 341.728 1502.44 346.631 1495.58 346.631H1489.2C1486.51 346.631 1484.05 344.67 1484.05 342.218V252.745C1484.05 246.617 1489.69 241.714 1496.31 241.714H1505.87C1510.04 241.714 1513.96 242.695 1517.39 244.901L1650.49 324.569C1650.73 324.569 1650.73 324.569 1650.73 324.569C1650.98 324.569 1650.98 324.569 1650.98 324.324V252.745C1650.98 246.617 1656.37 241.714 1663.23 241.714H1669.61Z" fill="currentColor"/>
<path d="M1961.22 241.714C1963.91 241.714 1966.12 243.675 1966.12 246.372V253.726C1966.12 259.854 1960.72 264.757 1954.11 264.757H1814.64V296.624C1814.64 311.577 1827.87 323.588 1844.29 323.588H1856.06C1862.68 323.588 1868.32 329.226 1868.32 335.845V340.993C1868.32 344.18 1865.62 346.631 1862.43 346.631H1846.01C1815.62 346.631 1790.86 324.324 1790.86 296.624V223.084C1790.86 220.633 1793.07 218.672 1795.76 218.672H1802.38C1809 218.672 1814.64 223.575 1814.64 229.703V241.714H1961.22Z" fill="currentColor"/>
<path d="M2052.52 241.714C2055.22 241.714 2057.43 243.675 2057.43 246.372V335.6C2057.43 341.728 2052.03 346.631 2045.17 346.631H2038.8C2036.1 346.631 2033.65 344.67 2033.65 342.218V252.745C2033.65 246.617 2039.29 241.714 2045.91 241.714H2052.52Z" fill="currentColor"/>
</svg>
