<svg width="492" height="115" viewBox="0 0 492 115" fill="none" xmlns="http://www.w3.org/2000/svg">
<g clip-path="url(#clip0_304_614)">
<path d="M115.889 26.888C117.329 26.888 118.481 28.04 118.481 29.48C118.481 30.248 118.097 31.016 117.425 31.496L91.7933 51.368C91.4093 51.656 91.4093 52.328 91.7933 52.616L117.425 72.392C118.097 72.872 118.481 73.64 118.481 74.408V74.504C118.481 75.848 117.329 77 115.889 77H112.433C110.321 77 108.209 76.328 106.577 75.08L85.6493 58.952C84.0173 57.704 82.0013 57.032 79.8893 57.032H73.4573C71.3453 57.032 69.3293 57.704 67.6013 58.952L46.7693 75.08C45.1373 76.328 43.0253 77 40.9133 77H37.4573C36.0173 77 34.8653 75.848 34.8653 74.504V74.408C34.8653 73.64 35.2493 72.872 35.9213 72.392L61.5533 52.616C61.9373 52.328 61.9373 51.656 61.5533 51.368L35.9213 31.496C35.2493 31.016 34.8653 30.248 34.8653 29.48C34.8653 28.04 36.0173 26.888 37.4573 26.888C38.9933 26.888 40.1453 26.888 41.0093 26.888C43.1213 26.888 45.1373 27.656 46.8653 28.904L67.5053 44.936C69.2333 46.28 71.2493 46.952 73.3613 46.952H79.8893C82.0013 46.952 84.1133 46.28 85.7453 44.936L106.481 28.904C108.209 27.656 110.225 26.888 112.337 26.888C113.201 26.888 114.353 26.888 115.889 26.888ZM238.796 26.888C240.236 26.888 241.388 28.04 241.388 29.48C241.388 30.248 241.004 31.016 240.332 31.496L214.7 51.368C214.316 51.656 214.316 52.328 214.7 52.616L240.332 72.392C241.004 72.872 241.388 73.64 241.388 74.408V74.504C241.388 75.848 240.236 77 238.796 77H235.34C233.228 77 231.116 76.328 229.484 75.08L208.556 58.952C206.924 57.704 204.908 57.032 202.796 57.032H196.364C194.252 57.032 192.236 57.704 190.508 58.952L169.676 75.08C168.044 76.328 165.932 77 163.82 77H160.364C158.924 77 157.772 75.848 157.772 74.504V74.408C157.772 73.64 158.156 72.872 158.828 72.392L184.46 52.616C184.844 52.328 184.844 51.656 184.46 51.368L158.828 31.496C158.156 31.016 157.772 30.248 157.772 29.48C157.772 28.04 158.924 26.888 160.364 26.888C161.9 26.888 163.052 26.888 163.916 26.888C166.028 26.888 168.044 27.656 169.772 28.904L190.412 44.936C192.14 46.28 194.156 46.952 196.268 46.952H202.796C204.908 46.952 207.02 46.28 208.652 44.936L229.388 28.904C231.116 27.656 233.132 26.888 235.244 26.888C236.108 26.888 237.26 26.888 238.796 26.888ZM361.702 26.888C363.142 26.888 364.294 28.04 364.294 29.48C364.294 30.248 363.91 31.016 363.238 31.496L337.606 51.368C337.222 51.656 337.222 52.328 337.606 52.616L363.238 72.392C363.91 72.872 364.294 73.64 364.294 74.408V74.504C364.294 75.848 363.142 77 361.702 77H358.246C356.134 77 354.022 76.328 352.39 75.08L331.462 58.952C329.83 57.704 327.814 57.032 325.702 57.032H319.27C317.158 57.032 315.142 57.704 313.414 58.952L292.582 75.08C290.95 76.328 288.838 77 286.726 77H283.27C281.83 77 280.678 75.848 280.678 74.504V74.408C280.678 73.64 281.062 72.872 281.734 72.392L307.366 52.616C307.75 52.328 307.75 51.656 307.366 51.368L281.734 31.496C281.062 31.016 280.678 30.248 280.678 29.48C280.678 28.04 281.83 26.888 283.27 26.888C284.806 26.888 285.958 26.888 286.822 26.888C288.934 26.888 290.95 27.656 292.678 28.904L313.318 44.936C315.046 46.28 317.062 46.952 319.174 46.952H325.702C327.814 46.952 329.926 46.28 331.558 44.936L352.294 28.904C354.022 27.656 356.038 26.888 358.15 26.888C359.014 26.888 360.166 26.888 361.702 26.888Z" fill="white"/>
<path d="M379.039 74.984C379.255 74.264 379.939 73.76 380.731 73.76H382.603C383.035 73.76 383.323 74.192 383.143 74.588L381.091 78.404C380.803 79.052 380.155 79.484 379.435 79.484H378.283C377.851 79.484 377.563 79.088 377.707 78.692L379.039 74.984ZM395.839 67.172C395.839 62.24 399.871 58.208 404.803 58.208H418.231C423.163 58.208 427.195 62.24 427.195 67.172V68.036C427.195 73.004 423.163 77 418.231 77H404.803C399.871 77 395.839 73.004 395.839 68.036V67.172ZM418.483 73.256C421.363 73.256 423.703 70.916 423.703 68.072V67.172C423.703 64.292 421.363 61.988 418.483 61.988H404.515C401.671 61.988 399.331 64.292 399.331 67.172V68.072C399.331 70.916 401.671 73.256 404.515 73.256H418.483ZM444.811 67.172C444.811 62.24 448.843 58.208 453.775 58.208H467.203C472.135 58.208 476.167 62.24 476.167 67.172V68.036C476.167 73.004 472.135 77 467.203 77H453.775C448.843 77 444.811 73.004 444.811 68.036V67.172ZM467.455 73.256C470.335 73.256 472.675 70.916 472.675 68.072V67.172C472.675 64.292 470.335 61.988 467.455 61.988H453.487C450.643 61.988 448.303 64.292 448.303 67.172V68.072C448.303 70.916 450.643 73.256 453.487 73.256H467.455Z" fill="white"/>
<path d="M22.1152 16.5391L16.1035 19.7734L22.1152 23.0957L21.1484 24.748L15.3125 21.1797L15.5586 27.9824H13.5195L13.7656 21.1797L7.92969 24.748L6.96289 23.0957L12.9746 19.7734L6.96289 16.5391L7.92969 14.8516L13.7656 18.4551L13.5195 11.5996H15.5586L15.3125 18.4551L21.1484 14.8516L22.1152 16.5391Z" fill="white"/>
</g>
<defs>
<clipPath id="clip0_304_614">
<rect width="492" height="115" fill="white"/>
</clipPath>
</defs>
</svg>
